<svg width="200" height="200" viewBox="0 0 200 200" fill="none" xmlns="http://www.w3.org/2000/svg">
<rect x="69.3181" y="42.0454" width="101.136" height="77.2727" fill="white"/>
<rect x="21.5908" y="5.68176" width="95.4545" height="188.636" fill="white"/>
<path d="M68.75 43.75V118.75H87.5V137.5L106.25 118.75H118.75V185.938C118.75 186.964 118.548 187.98 118.156 188.928C117.763 189.876 117.188 190.737 116.462 191.462C115.737 192.188 114.876 192.763 113.928 193.156C112.98 193.548 111.964 193.75 110.938 193.75H26.5625C25.5365 193.75 24.5204 193.548 23.5724 193.156C22.6244 192.763 21.7631 192.188 21.0375 191.462C20.312 190.737 19.7366 189.876 19.3441 188.928C18.9516 187.98 18.7497 186.964 18.75 185.938V14.0625C18.7497 13.0365 18.9516 12.0204 19.3441 11.0724C19.7366 10.1244 20.312 9.26306 21.0375 8.53754C21.7631 7.81202 22.6244 7.23657 23.5724 6.84406C24.5204 6.45156 25.5365 6.24969 26.5625 6.25H50L53.125 18.75H84.375L87.5 6.25H110.938C111.964 6.24969 112.98 6.45156 113.928 6.84406C114.876 7.23657 115.737 7.81202 116.462 8.53754C117.188 9.26306 117.763 10.1244 118.156 11.0724C118.548 12.0204 118.75 13.0365 118.75 14.0625V43.75H68.75Z" fill="#00DF71"/>
<path d="M119.242 68.75L118.75 69.1445V68.75H119.242Z" fill="#00DF71"/>
<path d="M181.25 46.875C181.25 50.4767 180.005 53.9678 177.728 56.7579C175.45 59.548 172.279 61.466 168.75 62.1875C167.721 62.3949 166.674 62.4996 165.625 62.5C161.481 62.5 157.507 60.8538 154.576 57.9235C151.646 54.9933 150 51.019 150 46.875C150 45.8255 150.105 44.7787 150.312 43.75C151.084 39.9526 153.238 36.5772 156.358 34.2791C159.478 31.9809 163.34 30.924 167.195 31.3134C171.051 31.7028 174.624 33.5108 177.221 36.3864C179.818 39.2621 181.254 43.0001 181.25 46.875Z" fill="#06EDFC"/>
<path d="M50 178.125H31.25C30.4212 178.125 29.6263 178.454 29.0403 179.04C28.4542 179.626 28.125 180.421 28.125 181.25C28.125 182.079 28.4542 182.874 29.0403 183.46C29.6263 184.046 30.4212 184.375 31.25 184.375H50C50.8288 184.375 51.6237 184.046 52.2097 183.46C52.7958 182.874 53.125 182.079 53.125 181.25C53.125 180.421 52.7958 179.626 52.2097 179.04C51.6237 178.454 50.8288 178.125 50 178.125Z" fill="#0D2549"/>
<path d="M62.5 178.125H59.375C58.5462 178.125 57.7513 178.454 57.1653 179.04C56.5792 179.626 56.25 180.421 56.25 181.25C56.25 182.079 56.5792 182.874 57.1653 183.46C57.7513 184.046 58.5462 184.375 59.375 184.375H62.5C63.3288 184.375 64.1237 184.046 64.7097 183.46C65.2958 182.874 65.625 182.079 65.625 181.25C65.625 180.421 65.2958 179.626 64.7097 179.04C64.1237 178.454 63.3288 178.125 62.5 178.125Z" fill="#0D2549"/>
<path d="M165.625 28.125C161.749 28.1303 157.97 29.3345 154.805 31.5724C151.641 33.8103 149.246 36.9724 147.949 40.625H121.875V14.0625C121.872 11.1627 120.718 8.38254 118.668 6.33206C116.617 4.28158 113.837 3.12821 110.938 3.125H26.5625C23.6627 3.12821 20.8825 4.28158 18.8321 6.33206C16.7816 8.38254 15.6282 11.1627 15.625 14.0625V185.938C15.6282 188.837 16.7816 191.617 18.8321 193.668C20.8825 195.718 23.6627 196.872 26.5625 196.875H110.938C113.837 196.872 116.617 195.718 118.668 193.668C120.718 191.617 121.872 188.837 121.875 185.938V121.875H168.75C169.579 121.875 170.374 121.546 170.96 120.96C171.546 120.374 171.875 119.579 171.875 118.75V64.5508C176.044 63.0755 179.557 60.1743 181.794 56.3597C184.031 52.5451 184.847 48.0626 184.1 43.7042C183.352 39.3458 181.088 35.3919 177.707 32.5412C174.326 29.6904 170.047 28.1263 165.625 28.125ZM83.4961 9.375L81.9336 15.625H55.5664L54.0039 9.375H83.4961ZM115.625 185.938C115.624 187.18 115.13 188.372 114.251 189.251C113.372 190.13 112.18 190.624 110.938 190.625H26.5625C25.3196 190.624 24.1279 190.13 23.2491 189.251C22.3702 188.372 21.876 187.18 21.875 185.938V14.0625C21.876 12.8196 22.3702 11.6279 23.2491 10.7491C24.1279 9.87023 25.3196 9.37603 26.5625 9.375H47.5586L50.0938 19.5078C50.2627 20.1839 50.6528 20.7841 51.2021 21.213C51.7513 21.6419 52.4281 21.8749 53.125 21.875H84.375C85.0719 21.8749 85.7487 21.6419 86.2979 21.213C86.8472 20.7841 87.2373 20.1839 87.4062 19.5078L89.9414 9.375H110.938C112.18 9.37603 113.372 9.87023 114.251 10.7491C115.13 11.6279 115.624 12.8196 115.625 14.0625V40.625H68.75C67.9212 40.625 67.1263 40.9542 66.5403 41.5403C65.9542 42.1263 65.625 42.9212 65.625 43.75V118.75C65.625 119.579 65.9542 120.374 66.5403 120.96C67.1263 121.546 67.9212 121.875 68.75 121.875H84.375V137.5C84.3745 138.118 84.5575 138.723 84.9009 139.237C85.2442 139.752 85.7325 140.153 86.3038 140.389C86.8751 140.626 87.5038 140.688 88.1103 140.567C88.7169 140.447 89.2739 140.148 89.7109 139.711L107.543 121.875H115.625V185.938ZM165.625 115.625H106.25C105.421 115.625 104.626 115.953 104.039 116.539L90.625 129.957V118.75C90.625 117.921 90.2958 117.126 89.7097 116.54C89.1237 115.954 88.3288 115.625 87.5 115.625H71.875V46.875H146.875C146.88 51.8462 148.857 56.6123 152.373 60.1274C155.888 63.6426 160.654 65.6197 165.625 65.625V115.625ZM165.625 59.375C163.153 59.375 160.736 58.6419 158.68 57.2684C156.625 55.8949 155.023 53.9426 154.077 51.6585C153.13 49.3745 152.883 46.8611 153.365 44.4364C153.848 42.0116 155.038 39.7843 156.786 38.0362C158.534 36.288 160.762 35.0975 163.186 34.6152C165.611 34.1329 168.124 34.3804 170.409 35.3265C172.693 36.2726 174.645 37.8748 176.018 39.9304C177.392 41.986 178.125 44.4027 178.125 46.875C178.121 50.1889 176.802 53.3658 174.459 55.709C172.116 58.0523 168.939 59.3707 165.625 59.375Z" fill="#0D2549"/>
<path d="M84.375 59.375H128.125C128.954 59.375 129.749 59.0458 130.335 58.4597C130.921 57.8737 131.25 57.0788 131.25 56.25C131.25 55.4212 130.921 54.6263 130.335 54.0403C129.749 53.4542 128.954 53.125 128.125 53.125H84.375C83.5462 53.125 82.7513 53.4542 82.1653 54.0403C81.5792 54.6263 81.25 55.4212 81.25 56.25C81.25 57.0788 81.5792 57.8737 82.1653 58.4597C82.7513 59.0458 83.5462 59.375 84.375 59.375Z" fill="#0D2549"/>
<path d="M150 65.625H84.375C83.5462 65.625 82.7513 65.9542 82.1653 66.5403C81.5792 67.1263 81.25 67.9212 81.25 68.75C81.25 69.5788 81.5792 70.3737 82.1653 70.9597C82.7513 71.5458 83.5462 71.875 84.375 71.875H150C150.829 71.875 151.624 71.5458 152.21 70.9597C152.796 70.3737 153.125 69.5788 153.125 68.75C153.125 67.9212 152.796 67.1263 152.21 66.5403C151.624 65.9542 150.829 65.625 150 65.625Z" fill="#0D2549"/>
<path d="M150 78.125H84.375C83.5462 78.125 82.7513 78.4542 82.1653 79.0403C81.5792 79.6263 81.25 80.4212 81.25 81.25C81.25 82.0788 81.5792 82.8737 82.1653 83.4597C82.7513 84.0458 83.5462 84.375 84.375 84.375H150C150.829 84.375 151.624 84.0458 152.21 83.4597C152.796 82.8737 153.125 82.0788 153.125 81.25C153.125 80.4212 152.796 79.6263 152.21 79.0403C151.624 78.4542 150.829 78.125 150 78.125Z" fill="#0D2549"/>
<path d="M150 90.625H84.375C83.5462 90.625 82.7513 90.9542 82.1653 91.5403C81.5792 92.1263 81.25 92.9212 81.25 93.75C81.25 94.5788 81.5792 95.3737 82.1653 95.9597C82.7513 96.5458 83.5462 96.875 84.375 96.875H150C150.829 96.875 151.624 96.5458 152.21 95.9597C152.796 95.3737 153.125 94.5788 153.125 93.75C153.125 92.9212 152.796 92.1263 152.21 91.5403C151.624 90.9542 150.829 90.625 150 90.625Z" fill="#0D2549"/>
<path d="M150 103.125H84.375C83.5462 103.125 82.7513 103.454 82.1653 104.04C81.5792 104.626 81.25 105.421 81.25 106.25C81.25 107.079 81.5792 107.874 82.1653 108.46C82.7513 109.046 83.5462 109.375 84.375 109.375H150C150.829 109.375 151.624 109.046 152.21 108.46C152.796 107.874 153.125 107.079 153.125 106.25C153.125 105.421 152.796 104.626 152.21 104.04C151.624 103.454 150.829 103.125 150 103.125Z" fill="#0D2549"/>
<path d="M172.524 41.321C172.388 41.2071 172.23 41.1204 172.06 41.066C171.89 41.0116 171.711 40.9905 171.532 41.0039C171.354 41.0174 171.18 41.0651 171.02 41.1443C170.86 41.2235 170.718 41.3327 170.602 41.4657L163.209 49.9019L160.125 47.8907C159.976 47.7924 159.809 47.724 159.633 47.6892C159.457 47.6544 159.276 47.6539 159.099 47.6879C158.923 47.7219 158.756 47.7896 158.606 47.8872C158.457 47.9848 158.329 48.1102 158.229 48.2564C158.129 48.4026 158.06 48.5666 158.026 48.739C157.991 48.9114 157.991 49.0888 158.027 49.261C158.063 49.4332 158.133 49.5968 158.234 49.7424C158.334 49.888 158.463 50.0127 158.613 50.1094L162.702 52.776C162.979 52.9568 163.315 53.032 163.645 52.9875C163.975 52.943 164.277 52.7818 164.493 52.5344L172.672 43.201C172.907 42.9325 173.024 42.5836 172.996 42.231C172.968 41.8785 172.798 41.5511 172.524 41.321Z" fill="#0D2549"/>
</svg>
