<svg width="20" height="20" viewBox="0 0 20 20" fill="none" xmlns="http://www.w3.org/2000/svg">
<path d="M3.6207 8.4377C3.86406 8.68145 4.26094 8.68145 4.5043 8.4377L5.3125 7.62949C5.55625 7.38613 5.55625 6.98926 5.3125 6.7459L4.5043 5.9377H15.625C16.659 5.9377 17.5 6.77871 17.5 7.8127C17.5 8.32949 17.9207 8.7502 18.4375 8.7502H19.0625C19.5793 8.7502 20 8.32949 20 7.8127C20 5.4002 18.0375 3.4377 15.625 3.4377H4.5043L5.3125 2.62949C5.55625 2.38613 5.55625 1.98926 5.3125 1.7459L4.5043 0.937695C4.26094 0.693945 3.86406 0.693945 3.6207 0.937695L0.0914062 4.4666C-0.0304687 4.58887 -0.0304687 4.78652 0.0914062 4.90879L3.6207 8.4377Z" fill="#00DF71"/>
<path d="M16.3793 11.5625C16.1359 11.3188 15.7395 11.3188 15.4957 11.5625L14.6875 12.3707C14.4433 12.6149 14.4429 13.0097 14.6875 13.2543L15.4957 14.0625H4.375C3.34102 14.0625 2.5 13.2215 2.5 12.1875C2.5 11.6707 2.0793 11.25 1.5625 11.25H0.9375C0.420703 11.25 0 11.6707 0 12.1875C0 14.6 1.9625 16.5625 4.375 16.5625H15.4957L14.6875 17.3707C14.4433 17.6149 14.4429 18.0097 14.6875 18.2543L15.4957 19.0625C15.7395 19.3063 16.1355 19.3063 16.3793 19.0625L19.9086 15.5336C20.0305 15.4113 20.0305 15.2137 19.9086 15.0914L16.3793 11.5625Z" fill="#00DF71"/>
</svg>
