<svg width="21" height="20" viewBox="0 0 21 20" fill="none" xmlns="http://www.w3.org/2000/svg">
<path fill-rule="evenodd" clip-rule="evenodd" d="M11 4.375C11.6213 4.375 12.125 4.87868 12.125 5.5V10C12.125 10.6213 11.6213 11.125 11 11.125C10.3787 11.125 9.875 10.6213 9.875 10V5.5C9.875 4.87868 10.3787 4.375 11 4.375Z" fill="#00DF71"/>
<path fill-rule="evenodd" clip-rule="evenodd" d="M10.0257 9.43769C10.3364 8.89961 11.0244 8.71525 11.5625 9.02591L15.4596 11.2759C15.9977 11.5866 16.1821 12.2746 15.8714 12.8127C15.5607 13.3508 14.8727 13.5351 14.3346 13.2245L10.4375 10.9745C9.89943 10.6638 9.71507 9.97577 10.0257 9.43769Z" fill="#00DF71"/>
<path fill-rule="evenodd" clip-rule="evenodd" d="M1.98434 2.47363C2.60566 2.47363 3.10934 2.97731 3.10934 3.59863V6.22363H5.73434C6.35567 6.22363 6.85934 6.72731 6.85934 7.34863C6.85934 7.96995 6.35567 8.47363 5.73434 8.47363H1.98434C1.36302 8.47363 0.859344 7.96995 0.859344 7.34863V3.59863C0.859344 2.97731 1.36302 2.47363 1.98434 2.47363Z" fill="#00DF71"/>
<path fill-rule="evenodd" clip-rule="evenodd" d="M9.17101 0.805142C10.9896 0.443406 12.8746 0.629062 14.5876 1.33863C16.3007 2.04821 17.7649 3.24982 18.795 4.79153C19.8252 6.33324 20.375 8.1458 20.375 10C20.375 11.8542 19.8252 13.6668 18.795 15.2085C17.7649 16.7502 16.3007 17.9518 14.5876 18.6614C12.8746 19.3709 10.9896 19.5566 9.17101 19.1949C7.35244 18.8331 5.68198 17.9402 4.37086 16.6291C3.93152 16.1898 3.93152 15.4775 4.37086 15.0381C4.8102 14.5988 5.52251 14.5988 5.96185 15.0381C6.9583 16.0346 8.22785 16.7132 9.60997 16.9881C10.9921 17.263 12.4247 17.1219 13.7266 16.5826C15.0285 16.0434 16.1413 15.1301 16.9242 13.9584C17.7071 12.7867 18.125 11.4092 18.125 10C18.125 8.59081 17.7071 7.21327 16.9242 6.04157C16.1413 4.86987 15.0285 3.95664 13.7266 3.41736C12.4247 2.87809 10.9921 2.73699 9.60997 3.01191C8.22785 3.28683 6.9583 3.96542 5.96185 4.96187L2.77987 8.14385C2.34053 8.58319 1.62822 8.58319 1.18888 8.14385C0.74954 7.70451 0.74954 6.9922 1.18888 6.55286L4.37086 3.37088C5.68198 2.05976 7.35244 1.16688 9.17101 0.805142Z" fill="#00DF71"/>
</svg>
