<svg width="22" height="19" viewBox="0 0 22 19" fill="none" xmlns="http://www.w3.org/2000/svg">
<path fill-rule="evenodd" clip-rule="evenodd" d="M10 2C7.23858 2 5 4.23858 5 7V8V15H2C0.89543 15 0 14.1046 0 13V9C0 7.89543 0.895431 7 2 7L3 7C3 3.13401 6.13401 0 10 0H12C15.866 0 19 3.13401 19 7H20C21.1046 7 22 7.89543 22 9V13C22 14.1046 21.1046 15 20 15H18.874C18.4299 16.7252 16.8638 18 15 18H13.7324C13.3866 18.5978 12.7403 19 12 19C10.8954 19 10 18.1046 10 17C10 15.8954 10.8954 15 12 15C12.7403 15 13.3866 15.4022 13.7324 16H15C16.1046 16 17 15.1046 17 14V8V7C17 4.23858 14.7614 2 12 2H10ZM3 9H2L2 13H3V9ZM10 9.25C10 9.94036 9.44036 10.5 8.75 10.5C8.05964 10.5 7.5 9.94036 7.5 9.25C7.5 8.55964 8.05964 8 8.75 8C9.44036 8 10 8.55964 10 9.25ZM13.25 10.5C13.9404 10.5 14.5 9.94036 14.5 9.25C14.5 8.55964 13.9404 8 13.25 8C12.5596 8 12 8.55964 12 9.25C12 9.94036 12.5596 10.5 13.25 10.5ZM19 9H20V13H19V9Z" fill="#00DF71"/>
</svg>
