<svg width="22" height="22" viewBox="0 0 22 22" fill="none" xmlns="http://www.w3.org/2000/svg">
<path fill-rule="evenodd" clip-rule="evenodd" d="M11 2.44444C6.2749 2.44444 2.44444 6.2749 2.44444 11C2.44444 15.7251 6.2749 19.5556 11 19.5556C15.7251 19.5556 19.5556 15.7251 19.5556 11C19.5556 6.2749 15.7251 2.44444 11 2.44444ZM0 11C0 4.92487 4.92487 0 11 0C17.0751 0 22 4.92487 22 11C22 17.0751 17.0751 22 11 22C4.92487 22 0 17.0751 0 11Z" fill="#00DF71"/>
<path fill-rule="evenodd" clip-rule="evenodd" d="M11 7.33312C9.42497 7.33312 8.14815 8.60993 8.14815 10.185C8.14815 11.76 9.42497 13.0368 11 13.0368C12.575 13.0368 13.8519 11.76 13.8519 10.185C13.8519 8.60993 12.575 7.33312 11 7.33312ZM5.7037 10.185C5.7037 7.2599 8.07494 4.88867 11 4.88867C13.9251 4.88867 16.2963 7.2599 16.2963 10.185C16.2963 13.11 13.9251 15.4813 11 15.4813C8.07494 15.4813 5.7037 13.11 5.7037 10.185Z" fill="#00DF71"/>
<path fill-rule="evenodd" clip-rule="evenodd" d="M11 15.4816C9.87169 15.4816 8.7654 15.7938 7.80358 16.3837C6.84176 16.9735 6.06193 17.8181 5.55041 18.8237C5.2444 19.4254 4.50857 19.6651 3.90691 19.3591C3.30525 19.053 3.06558 18.3172 3.3716 17.7156C4.08763 16.3078 5.17924 15.1256 6.52561 14.2999C7.87198 13.4742 9.42057 13.0371 11 13.0371C12.5794 13.0371 14.128 13.4742 15.4743 14.2999C16.8207 15.1256 17.9123 16.3078 18.6284 17.7155C18.9344 18.3172 18.6947 19.053 18.0931 19.359C17.4914 19.6651 16.7556 19.4254 16.4496 18.8237C15.938 17.818 15.1582 16.9735 14.1964 16.3836C13.2346 15.7938 12.1283 15.4816 11 15.4816Z" fill="#00DF71"/>
</svg>
