<svg width="200" height="200" viewBox="0 0 200 200" fill="none" xmlns="http://www.w3.org/2000/svg">
<rect x="6" y="39" width="163" height="52" fill="white"/>
<rect x="18" y="117" width="49" height="24" fill="white"/>
<circle cx="163" cy="141" r="32" fill="#06EDFC"/>
<path d="M168.75 42.1875C168.75 41.1615 168.548 40.1454 168.156 39.1974C167.763 38.2494 167.188 37.3881 166.462 36.6625C165.737 35.937 164.876 35.3616 163.928 34.9691C162.98 34.5766 161.964 34.3747 160.938 34.375H14.0625C13.0365 34.3747 12.0204 34.5766 11.0724 34.9691C10.1244 35.3616 9.26306 35.937 8.53754 36.6625C7.81202 37.3881 7.23657 38.2494 6.84406 39.1974C6.45156 40.1454 6.24969 41.1615 6.25 42.1875V53.125H168.75V42.1875Z" fill="#00DF71"/>
<path d="M14.0625 150H131.117L132.309 148.711C130.946 143.608 130.898 138.242 132.17 133.116C133.441 127.989 135.991 123.268 139.58 119.393C143.17 115.519 147.683 112.616 152.698 110.957C157.712 109.298 163.066 108.937 168.258 109.906L168.75 109.375V71.875H6.25V142.188C6.24969 143.214 6.45156 144.23 6.84406 145.178C7.23657 146.126 7.81202 146.987 8.53754 147.712C9.26306 148.438 10.1244 149.013 11.0724 149.406C12.0204 149.798 13.0365 150 14.0625 150ZM18.75 118.75H68.75V137.5H18.75V118.75Z" fill="#00DF71"/>
<path d="M68.75 115.625H18.75C17.9212 115.625 17.1263 115.954 16.5403 116.54C15.9542 117.126 15.625 117.921 15.625 118.75V137.5C15.625 138.329 15.9542 139.124 16.5403 139.71C17.1263 140.296 17.9212 140.625 18.75 140.625H68.75C69.5788 140.625 70.3737 140.296 70.9597 139.71C71.5458 139.124 71.875 138.329 71.875 137.5V118.75C71.875 117.921 71.5458 117.126 70.9597 116.54C70.3737 115.954 69.5788 115.625 68.75 115.625ZM65.625 134.375H21.875V121.875H65.625V134.375Z" fill="#0D2549"/>
<path d="M180.159 128.877C179.847 128.61 179.486 128.407 179.096 128.28C178.706 128.152 178.295 128.103 177.885 128.134C177.476 128.166 177.077 128.277 176.711 128.463C176.345 128.649 176.019 128.905 175.752 129.216L158.805 148.989L151.734 144.275C151.393 144.045 151.009 143.884 150.606 143.803C150.202 143.721 149.786 143.72 149.382 143.8C148.978 143.879 148.594 144.038 148.252 144.267C147.909 144.495 147.615 144.789 147.387 145.132C147.158 145.475 147 145.859 146.92 146.263C146.841 146.667 146.842 147.083 146.924 147.487C147.006 147.89 147.167 148.274 147.397 148.615C147.628 148.956 147.923 149.248 148.267 149.475L157.642 155.725C158.278 156.149 159.046 156.325 159.803 156.221C160.559 156.116 161.251 155.738 161.748 155.159L180.498 133.284C181.038 132.654 181.305 131.836 181.241 131.01C181.177 130.184 180.788 129.417 180.159 128.877Z" fill="#0D2549"/>
<path d="M171.875 107.551V42.1875C171.872 39.2877 170.718 36.5075 168.668 34.4571C166.617 32.4066 163.837 31.2532 160.938 31.25H14.0625C11.1627 31.2532 8.38254 32.4066 6.33206 34.4571C4.28158 36.5075 3.12821 39.2877 3.125 42.1875V142.188C3.12821 145.087 4.28158 147.867 6.33206 149.918C8.38254 151.968 11.1627 153.122 14.0625 153.125H130.477C132.605 158.576 136.09 163.394 140.601 167.121C145.113 170.849 150.501 173.363 156.256 174.425C162.011 175.488 167.941 175.064 173.486 173.193C179.031 171.322 184.007 168.067 187.942 163.735C191.876 159.403 194.64 154.139 195.971 148.44C197.302 142.741 197.156 136.797 195.547 131.171C193.938 125.544 190.92 120.422 186.777 116.288C182.634 112.155 177.505 109.147 171.875 107.551ZM9.375 42.1875C9.37603 40.9446 9.87023 39.7529 10.7491 38.8741C11.6279 37.9952 12.8196 37.501 14.0625 37.5H160.938C162.18 37.501 163.372 37.9952 164.251 38.8741C165.13 39.7529 165.624 40.9446 165.625 42.1875V50H9.375V42.1875ZM9.375 56.25H165.625V68.75H9.375V56.25ZM128.695 146.875H14.0625C12.8196 146.874 11.6279 146.38 10.7491 145.501C9.87023 144.622 9.37603 143.43 9.375 142.188V75H165.625V106.395C164.594 106.301 163.555 106.25 162.5 106.25C157.457 106.252 152.476 107.363 147.91 109.505C143.344 111.646 139.305 114.766 136.08 118.642C132.854 122.519 130.52 127.058 129.244 131.937C127.968 136.816 127.781 141.916 128.695 146.875ZM162.5 168.75C156.937 168.75 151.5 167.1 146.875 164.01C142.249 160.92 138.645 156.527 136.516 151.388C134.387 146.249 133.83 140.594 134.915 135.138C136.001 129.682 138.679 124.671 142.613 120.738C146.546 116.804 151.557 114.126 157.013 113.04C162.469 111.955 168.124 112.512 173.263 114.641C178.402 116.77 182.795 120.374 185.885 125C188.975 129.625 190.625 135.062 190.625 140.625C190.616 148.082 187.65 155.23 182.378 160.503C177.105 165.775 169.957 168.741 162.5 168.75Z" fill="#0D2549"/>
</svg>
