<svg width="19" height="18" viewBox="0 0 19 18" fill="none" xmlns="http://www.w3.org/2000/svg">
<path d="M17.3333 0H2.33334C1.93566 0.000454817 1.55439 0.158636 1.27319 0.439842C0.99198 0.721048 0.833798 1.10231 0.833344 1.5V11.9891C0.833298 11.9928 0.832794 11.9963 0.832794 12C0.832794 12.0037 0.833298 12.0072 0.833344 12.0109V16.5C0.833798 16.8977 0.99198 17.279 1.27319 17.5602C1.55439 17.8414 1.93566 17.9995 2.33334 18H17.3333C17.731 17.9995 18.1123 17.8414 18.3935 17.5602C18.6747 17.279 18.8329 16.8977 18.8333 16.5V1.5C18.8329 1.10231 18.6747 0.721048 18.3935 0.439842C18.1123 0.158636 17.731 0.000454817 17.3333 0ZM6.12106 7.53763C6.26174 7.39702 6.45249 7.31804 6.65138 7.31804C6.85028 7.31804 7.04103 7.39702 7.1817 7.53763L9.08334 9.43931V3.75C9.08334 3.55109 9.16236 3.36032 9.30301 3.21967C9.44367 3.07902 9.63443 3 9.83334 3C10.0323 3 10.223 3.07902 10.3637 3.21967C10.5043 3.36032 10.5833 3.55109 10.5833 3.75V9.43931L12.485 7.53762C12.5546 7.46798 12.6373 7.41273 12.7283 7.37504C12.8193 7.33735 12.9168 7.31795 13.0153 7.31796C13.1138 7.31796 13.2114 7.33736 13.3024 7.37505C13.3934 7.41275 13.476 7.468 13.5457 7.53765C13.6153 7.60729 13.6706 7.68998 13.7083 7.78098C13.746 7.87198 13.7654 7.96951 13.7654 8.068C13.7654 8.1665 13.746 8.26403 13.7083 8.35503C13.6706 8.44603 13.6153 8.52871 13.5457 8.59835L10.3637 11.7804C10.3586 11.7854 10.353 11.7898 10.3478 11.7947C10.3353 11.8065 10.3229 11.8184 10.3096 11.8293C10.3033 11.8345 10.2966 11.839 10.2902 11.8439C10.2771 11.8539 10.2642 11.864 10.2505 11.8732C10.2452 11.8768 10.2396 11.8797 10.2343 11.8831C10.2189 11.8928 10.2035 11.9025 10.1874 11.9111C10.1834 11.9133 10.1793 11.9149 10.1753 11.917C10.1575 11.9261 10.1395 11.9349 10.1209 11.9426C10.1183 11.9438 10.1154 11.9446 10.1127 11.9457C10.0928 11.9537 10.0727 11.9611 10.0519 11.9674C10.0492 11.9683 10.0463 11.9688 10.0436 11.9696C10.023 11.9756 10.0022 11.981 9.98098 11.9853C9.97484 11.9865 9.96852 11.987 9.96235 11.9881C9.94445 11.9913 9.92655 11.9944 9.90824 11.9962C9.85844 12.0013 9.80826 12.0013 9.75846 11.9962C9.74015 11.9944 9.72225 11.9913 9.70435 11.9881C9.69817 11.987 9.69185 11.9865 9.68572 11.9853C9.66448 11.9811 9.6437 11.9756 9.62309 11.9696C9.62035 11.9688 9.61751 11.9683 9.61476 11.9674C9.59398 11.9611 9.5737 11.9536 9.55374 11.9456C9.55113 11.9445 9.54839 11.9437 9.54577 11.9426C9.52719 11.9349 9.5092 11.9261 9.49139 11.917C9.48741 11.9149 9.48324 11.9133 9.47926 11.9111C9.46319 11.9025 9.44777 11.8928 9.43243 11.8831C9.42708 11.8797 9.42145 11.8768 9.41618 11.8732C9.40249 11.864 9.38958 11.8539 9.37654 11.8439C9.37013 11.839 9.3634 11.8345 9.35713 11.8293C9.34418 11.8187 9.33209 11.8071 9.31987 11.7957C9.31433 11.7904 9.30838 11.7858 9.30298 11.7804L6.12102 8.59836C5.98037 8.45769 5.90136 8.26691 5.90137 8.06798C5.90137 7.86906 5.9804 7.67829 6.12106 7.53763ZM17.3333 16.5H2.33334V12.75L5.02215 12.7499L6.83289 14.5608C6.97186 14.7005 7.13715 14.8112 7.31918 14.8866C7.50122 14.962 7.6964 15.0005 7.89343 15H11.7722C11.9692 15.0005 12.1644 14.962 12.3465 14.8866C12.5285 14.8111 12.6938 14.7004 12.8328 14.5606L14.6434 12.75H17.334L17.3343 16.5H17.3333Z" fill="#00DF71"/>
</svg>
