<svg width="25" height="24" viewBox="0 0 25 24" fill="none" xmlns="http://www.w3.org/2000/svg">
<path fill-rule="evenodd" clip-rule="evenodd" d="M17.7045 2.2045C18.1438 1.76517 18.8562 1.76517 19.2955 2.2045L22.2955 5.2045C22.7348 5.64384 22.7348 6.35616 22.2955 6.7955L13.2955 15.7955C13.0845 16.0065 12.7984 16.125 12.5 16.125H9.5C8.87868 16.125 8.375 15.6213 8.375 15V12C8.375 11.7016 8.49353 11.4155 8.7045 11.2045L17.7045 2.2045ZM10.625 12.466V13.875H12.034L19.909 6L18.5 4.59099L10.625 12.466Z" fill="#BBBDC1"/>
<path fill-rule="evenodd" clip-rule="evenodd" d="M15.0795 4.8295C15.5188 4.39017 16.2312 4.39017 16.6705 4.8295L19.6705 7.8295C20.1098 8.26884 20.1098 8.98116 19.6705 9.4205C19.2312 9.85984 18.5188 9.85984 18.0795 9.4205L15.0795 6.4205C14.6402 5.98116 14.6402 5.26884 15.0795 4.8295Z" fill="#BBBDC1"/>
<path fill-rule="evenodd" clip-rule="evenodd" d="M5.375 4.875H12.4467C13.068 4.875 13.5717 4.37132 13.5717 3.75C13.5717 3.12868 13.068 2.625 12.4467 2.625H5C4.50272 2.625 4.02581 2.82254 3.67417 3.17417C3.32254 3.52581 3.125 4.00272 3.125 4.5V19.5C3.125 19.9973 3.32254 20.4742 3.67417 20.8258C4.02581 21.1775 4.50272 21.375 5 21.375H20C20.4973 21.375 20.9742 21.1775 21.3258 20.8258C21.6775 20.4742 21.875 19.9973 21.875 19.5V12.0533C21.875 11.432 21.3713 10.9283 20.75 10.9283C20.1287 10.9283 19.625 11.432 19.625 12.0533V19.125H5.375V4.875Z" fill="#BBBDC1"/>
</svg>
