<svg width="25" height="24" viewBox="0 0 25 24" fill="none" xmlns="http://www.w3.org/2000/svg">
<path fill-rule="evenodd" clip-rule="evenodd" d="M8.04167 10.125C8.04167 9.50368 8.54535 9 9.16667 9H15.1667C15.788 9 16.2917 9.50368 16.2917 10.125C16.2917 10.7463 15.788 11.25 15.1667 11.25H9.16667C8.54535 11.25 8.04167 10.7463 8.04167 10.125Z" fill="#BBBDC1"/>
<path fill-rule="evenodd" clip-rule="evenodd" d="M8.04167 13.875C8.04167 13.2537 8.54535 12.75 9.16667 12.75H11.0417C11.663 12.75 12.1667 13.2537 12.1667 13.875C12.1667 14.4963 11.663 15 11.0417 15H9.16667C8.54535 15 8.04167 14.4963 8.04167 13.875Z" fill="#BBBDC1"/>
<path fill-rule="evenodd" clip-rule="evenodd" d="M5.04167 4.875V19.125H14.7007L19.2917 14.534V4.875H5.04167ZM19.4015 14.4242L19.4011 14.4246L19.4015 14.4242ZM14.5908 19.2348C14.591 19.2347 14.5911 19.2345 14.5913 19.2344L14.5908 19.2348ZM3.34085 3.17417C3.69248 2.82254 4.16939 2.625 4.66667 2.625H19.6667C20.164 2.625 20.6409 2.82254 20.9925 3.17417C21.3441 3.52581 21.5417 4.00272 21.5417 4.5V14.6893C21.5417 14.9356 21.4932 15.1794 21.3989 15.4069C21.3047 15.6344 21.1666 15.8411 20.9925 16.0152L16.1818 20.8258C16.0077 20.9999 15.801 21.138 15.5735 21.2323C15.3461 21.3265 15.1022 21.375 14.856 21.375H4.66667C4.16939 21.375 3.69248 21.1775 3.34085 20.8258C2.98922 20.4742 2.79167 19.9973 2.79167 19.5V4.5C2.79167 4.00272 2.98922 3.52581 3.34085 3.17417Z" fill="#BBBDC1"/>
<path fill-rule="evenodd" clip-rule="evenodd" d="M13.6667 14.624C13.6667 14.0027 14.1704 13.499 14.7917 13.499H20.3489C20.9702 13.499 21.4739 14.0027 21.4739 14.624C21.4739 15.2453 20.9702 15.749 20.3489 15.749H15.9167V20.1815C15.9167 20.8028 15.413 21.3065 14.7917 21.3065C14.1704 21.3065 13.6667 20.8028 13.6667 20.1815V14.624Z" fill="#BBBDC1"/>
</svg>
