<svg width="24" height="24" viewBox="0 0 24 24" fill="none" xmlns="http://www.w3.org/2000/svg">
<path fill-rule="evenodd" clip-rule="evenodd" d="M12 4.125C7.65076 4.125 4.125 7.65076 4.125 12C4.125 16.3492 7.65076 19.875 12 19.875C16.3492 19.875 19.875 16.3492 19.875 12C19.875 7.65076 16.3492 4.125 12 4.125ZM1.875 12C1.875 6.40812 6.40812 1.875 12 1.875C17.5919 1.875 22.125 6.40812 22.125 12C22.125 17.5919 17.5919 22.125 12 22.125C6.40812 22.125 1.875 17.5919 1.875 12Z" fill="#BBBDC1"/>
<path fill-rule="evenodd" clip-rule="evenodd" d="M12 8.625C10.5503 8.625 9.375 9.80025 9.375 11.25C9.375 12.6997 10.5503 13.875 12 13.875C13.4497 13.875 14.625 12.6997 14.625 11.25C14.625 9.80025 13.4497 8.625 12 8.625ZM7.125 11.25C7.125 8.55761 9.30761 6.375 12 6.375C14.6924 6.375 16.875 8.55761 16.875 11.25C16.875 13.9424 14.6924 16.125 12 16.125C9.30761 16.125 7.125 13.9424 7.125 11.25Z" fill="#BBBDC1"/>
<path fill-rule="evenodd" clip-rule="evenodd" d="M12 16.125C10.9614 16.125 9.94315 16.4124 9.05784 16.9553C8.17253 17.4983 7.45473 18.2757 6.98391 19.2013C6.70223 19.7551 6.02494 19.9757 5.47114 19.6941C4.91734 19.4124 4.69673 18.7351 4.97841 18.1813C5.63748 16.8855 6.64226 15.7974 7.88153 15.0373C9.1208 14.2773 10.5462 13.875 12 13.875C13.4537 13.875 14.8792 14.2773 16.1184 15.0373C17.3577 15.7973 18.3625 16.8855 19.0216 18.1813C19.3032 18.7351 19.0826 19.4124 18.5288 19.694C17.975 19.9757 17.2978 19.7551 17.0161 19.2013C16.5452 18.2756 15.8274 17.4983 14.9421 16.9553C14.0568 16.4124 13.0385 16.125 12 16.125Z" fill="#BBBDC1"/>
</svg>
