<svg width="22" height="16" viewBox="0 0 22 16" fill="none" xmlns="http://www.w3.org/2000/svg">
<path fill-rule="evenodd" clip-rule="evenodd" d="M2.375 2.375V13.625H19.625V2.375H2.375ZM0.125 2C0.125 0.964466 0.964466 0.125 2 0.125H20C21.0355 0.125 21.875 0.964466 21.875 2V14C21.875 15.0355 21.0355 15.875 20 15.875H2C0.964466 15.875 0.125 15.0355 0.125 14V2Z" fill="#898B9A"/>
<path fill-rule="evenodd" clip-rule="evenodd" d="M13.2495 11.375C13.2495 10.7537 13.7532 10.25 14.3745 10.25H17.3745C17.9958 10.25 18.4995 10.7537 18.4995 11.375C18.4995 11.9963 17.9958 12.5 17.3745 12.5H14.3745C13.7532 12.5 13.2495 11.9963 13.2495 11.375Z" fill="#898B9A"/>
<path fill-rule="evenodd" clip-rule="evenodd" d="M7.99951 11.375C7.99951 10.7537 8.50319 10.25 9.12451 10.25H10.6245C11.2458 10.25 11.7495 10.7537 11.7495 11.375C11.7495 11.9963 11.2458 12.5 10.6245 12.5H9.12451C8.50319 12.5 7.99951 11.9963 7.99951 11.375Z" fill="#898B9A"/>
<path fill-rule="evenodd" clip-rule="evenodd" d="M0.124512 5.07996C0.124512 4.45864 0.628191 3.95496 1.24951 3.95496H20.7495C21.3708 3.95496 21.8745 4.45864 21.8745 5.07996C21.8745 5.70128 21.3708 6.20496 20.7495 6.20496H1.24951C0.628191 6.20496 0.124512 5.70128 0.124512 5.07996Z" fill="#898B9A"/>
</svg>
