<svg width="20" height="20" viewBox="0 0 20 20" fill="none" xmlns="http://www.w3.org/2000/svg">
<g clip-path="url(#clip0_3568_4892)">
<path d="M19.8055 8.0415H19V8H10V12H15.6515C14.827 14.3285 12.6115 16 10 16C6.6865 16 4 13.3135 4 10C4 6.6865 6.6865 4 10 4C11.5295 4 12.921 4.577 13.9805 5.5195L16.809 2.691C15.023 1.0265 12.634 0 10 0C4.4775 0 0 4.4775 0 10C0 15.5225 4.4775 20 10 20C15.5225 20 20 15.5225 20 10C20 9.3295 19.931 8.675 19.8055 8.0415Z" fill="#FFC107"/>
<path d="M1.15137 5.3455L4.43687 7.755C5.32587 5.554 7.47887 4 9.99837 4C11.5279 4 12.9194 4.577 13.9789 5.5195L16.8074 2.691C15.0214 1.0265 12.6324 0 9.99837 0C6.15737 0 2.82637 2.1685 1.15137 5.3455Z" fill="#FF3D00"/>
<path d="M9.9982 19.9994C12.5812 19.9994 14.9282 19.0109 16.7027 17.4034L13.6077 14.7844C12.57 15.5736 11.3019 16.0004 9.9982 15.9994C7.3972 15.9994 5.1887 14.3409 4.3567 12.0264L1.0957 14.5389C2.7507 17.7774 6.1117 19.9994 9.9982 19.9994Z" fill="#4CAF50"/>
<path d="M19.8045 8.03955H18.999V7.99805H9.99902V11.998H15.6505C15.2561 13.1063 14.5457 14.0746 13.607 14.7835L13.6085 14.7825L16.7035 17.4015C16.4845 17.6005 19.999 14.998 19.999 9.99805C19.999 9.32755 19.93 8.67305 19.8045 8.03955Z" fill="#1976D2"/>
</g>
<defs>
<clipPath id="clip0_3568_4892">
<rect width="20" height="20" fill="white"/>
</clipPath>
</defs>
</svg>
