<svg width="194" height="144" viewBox="0 0 194 144" fill="none" xmlns="http://www.w3.org/2000/svg">
<path d="M165.75 11.1875C165.75 10.1615 165.548 9.14542 165.156 8.19742C164.763 7.24943 164.188 6.38806 163.462 5.66254C162.737 4.93702 161.876 4.36157 160.928 3.96906C159.98 3.57656 158.964 3.37469 157.938 3.375H11.0625C10.0365 3.37469 9.02042 3.57656 8.07242 3.96906C7.12443 4.36157 6.26306 4.93702 5.53754 5.66254C4.81202 6.38806 4.23657 7.24943 3.84406 8.19742C3.45156 9.14542 3.24969 10.1615 3.25 11.1875V22.125H165.75V11.1875Z" fill="#00DF71"/>
<path d="M11.0625 119H128.117L129.309 117.711C127.946 112.608 127.898 107.242 129.17 102.116C130.441 96.9891 132.991 92.2681 136.58 88.3933C140.17 84.5185 144.683 81.6162 149.698 79.9572C154.712 78.2983 160.066 77.9367 165.258 78.9062L165.75 78.375V40.875H3.25V111.188C3.24969 112.214 3.45156 113.23 3.84406 114.178C4.23657 115.126 4.81202 115.987 5.53754 116.712C6.26306 117.438 7.12443 118.013 8.07242 118.406C9.02042 118.798 10.0365 119 11.0625 119ZM15.75 87.75H65.75V106.5H15.75V87.75Z" fill="#00DF71"/>
<path d="M65.75 84.625H15.75C14.9212 84.625 14.1263 84.9542 13.5403 85.5403C12.9542 86.1263 12.625 86.9212 12.625 87.75V106.5C12.625 107.329 12.9542 108.124 13.5403 108.71C14.1263 109.296 14.9212 109.625 15.75 109.625H65.75C66.5788 109.625 67.3737 109.296 67.9597 108.71C68.5458 108.124 68.875 107.329 68.875 106.5V87.75C68.875 86.9212 68.5458 86.1263 67.9597 85.5403C67.3737 84.9542 66.5788 84.625 65.75 84.625ZM62.625 103.375H18.875V90.875H62.625V103.375Z" fill="#0D2549"/>
<path d="M177.159 97.8773C176.847 97.6102 176.486 97.4071 176.096 97.2795C175.706 97.152 175.295 97.1026 174.885 97.1341C174.476 97.1656 174.077 97.2774 173.711 97.463C173.345 97.6487 173.019 97.9047 172.752 98.2163L155.805 117.989L148.734 113.275C148.393 113.045 148.009 112.884 147.606 112.803C147.202 112.721 146.786 112.72 146.382 112.8C145.978 112.879 145.594 113.038 145.252 113.267C144.909 113.495 144.615 113.789 144.387 114.132C144.158 114.475 144 114.859 143.92 115.263C143.841 115.667 143.842 116.083 143.924 116.487C144.006 116.89 144.167 117.274 144.397 117.615C144.628 117.956 144.923 118.248 145.267 118.475L154.642 124.725C155.278 125.149 156.046 125.325 156.803 125.221C157.559 125.116 158.251 124.738 158.748 124.159L177.498 102.284C178.038 101.654 178.305 100.836 178.241 100.01C178.177 99.1838 177.788 98.4166 177.159 97.8773Z" fill="#0D2549"/>
<path d="M168.875 76.5508V11.1875C168.872 8.28768 167.718 5.50755 165.668 3.45706C163.617 1.40658 160.837 0.253205 157.938 0.25H11.0625C8.16268 0.253205 5.38254 1.40658 3.33206 3.45706C1.28158 5.50755 0.128205 8.28768 0.125 11.1875V111.188C0.128205 114.087 1.28158 116.867 3.33206 118.918C5.38254 120.968 8.16268 122.122 11.0625 122.125H127.477C129.605 127.576 133.09 132.394 137.601 136.121C142.113 139.849 147.501 142.363 153.256 143.425C159.011 144.488 164.941 144.064 170.486 142.193C176.031 140.322 181.007 137.067 184.942 132.735C188.876 128.403 191.64 123.139 192.971 117.44C194.302 111.741 194.156 105.797 192.547 100.171C190.938 94.5442 187.92 89.4216 183.777 85.2882C179.634 81.1547 174.505 78.1473 168.875 76.5508ZM6.375 11.1875C6.37603 9.94462 6.87023 8.75293 7.74908 7.87408C8.62793 6.99523 9.81962 6.50103 11.0625 6.5H157.938C159.18 6.50103 160.372 6.99523 161.251 7.87408C162.13 8.75293 162.624 9.94462 162.625 11.1875V19H6.375V11.1875ZM6.375 25.25H162.625V37.75H6.375V25.25ZM125.695 115.875H11.0625C9.81962 115.874 8.62793 115.38 7.74908 114.501C6.87023 113.622 6.37603 112.43 6.375 111.188V44H162.625V75.3945C161.594 75.3008 160.555 75.25 159.5 75.25C154.457 75.252 149.476 76.3631 144.91 78.5047C140.344 80.6463 136.305 83.7659 133.08 87.6424C129.854 91.519 127.52 96.0576 126.244 100.937C124.968 105.816 124.781 110.916 125.695 115.875ZM159.5 137.75C153.937 137.75 148.5 136.1 143.875 133.01C139.249 129.92 135.645 125.527 133.516 120.388C131.387 115.249 130.83 109.594 131.915 104.138C133.001 98.6824 135.679 93.671 139.613 89.7376C143.546 85.8043 148.557 83.1256 154.013 82.0404C159.469 80.9552 165.124 81.5122 170.263 83.6409C175.402 85.7696 179.795 89.3745 182.885 93.9996C185.975 98.6247 187.625 104.062 187.625 109.625C187.616 117.082 184.65 124.23 179.378 129.503C174.105 134.775 166.957 137.741 159.5 137.75Z" fill="#0D2549"/>
</svg>
