<svg width="60" height="42" viewBox="0 0 60 42" fill="none" xmlns="http://www.w3.org/2000/svg">
<path d="M45 17.25V14.9062C45.0001 14.5984 44.9395 14.2936 44.8218 14.0092C44.704 13.7248 44.5314 13.4664 44.3137 13.2488C44.0961 13.0311 43.8377 12.8585 43.5533 12.7407C43.2689 12.623 42.9641 12.5624 42.6562 12.5625H4.21875C3.91094 12.5624 3.60612 12.623 3.32173 12.7407C3.03733 12.8585 2.77892 13.0311 2.56126 13.2488C2.34361 13.4664 2.17097 13.7248 2.05322 14.0092C1.93547 14.2936 1.87491 14.5984 1.875 14.9062V17.25H45Z" fill="#00DF71"/>
<path d="M4.21875 40.6875H42.6562C42.9641 40.6876 43.2689 40.627 43.5533 40.5093C43.8377 40.3915 44.0961 40.2189 44.3137 40.0012C44.5314 39.7836 44.704 39.5252 44.8218 39.2408C44.9395 38.9564 45.0001 38.6516 45 38.3438V22.875H1.875V38.3438C1.87491 38.6516 1.93547 38.9564 2.05322 39.2408C2.17097 39.5252 2.34361 39.7836 2.56126 40.0012C2.77892 40.2189 3.03733 40.3915 3.32173 40.5093C3.60612 40.627 3.91094 40.6876 4.21875 40.6875ZM5.625 31.3125H16.875V36.9375H5.625V31.3125Z" fill="#00DF71"/>
<path d="M55.7812 0.375H17.3438C16.4738 0.375962 15.6398 0.721973 15.0246 1.33712C14.4095 1.95226 14.0635 2.7863 14.0625 3.65625V11.625H4.21875C3.3488 11.626 2.51476 11.972 1.89962 12.5871C1.28447 13.2023 0.938462 14.0363 0.9375 14.9062V38.3438C0.938462 39.2137 1.28447 40.0477 1.89962 40.6629C2.51476 41.278 3.3488 41.624 4.21875 41.625H42.6562C43.5262 41.624 44.3602 41.278 44.9754 40.6629C45.5905 40.0477 45.9365 39.2137 45.9375 38.3438V30.375H55.7812C56.6512 30.374 57.4852 30.028 58.1004 29.4129C58.7155 28.7977 59.0615 27.9637 59.0625 27.0938V3.65625C59.0615 2.7863 58.7155 1.95226 58.1004 1.33712C57.4852 0.721973 56.6512 0.375962 55.7812 0.375ZM44.0625 38.3438C44.0622 38.7166 43.9139 39.0741 43.6503 39.3378C43.3866 39.6014 43.0291 39.7497 42.6562 39.75H4.21875C3.84588 39.7497 3.48838 39.6014 3.22472 39.3378C2.96107 39.0741 2.81281 38.7166 2.8125 38.3438V23.8125H44.0625V38.3438ZM44.0625 21.9375H2.8125V18.1875H44.0625V21.9375ZM44.0625 16.3125H2.8125V14.9062C2.81281 14.5334 2.96107 14.1759 3.22472 13.9122C3.48838 13.6486 3.84588 13.5003 4.21875 13.5H42.6562C43.0291 13.5003 43.3866 13.6486 43.6503 13.9122C43.9139 14.1759 44.0622 14.5334 44.0625 14.9062V16.3125ZM57.1875 27.0938C57.1872 27.4666 57.0389 27.8241 56.7753 28.0878C56.5116 28.3514 56.1541 28.4997 55.7812 28.5H45.9375V14.9062C45.9365 14.0363 45.5905 13.2023 44.9754 12.5871C44.3602 11.972 43.5262 11.626 42.6562 11.625H15.9375V3.65625C15.9378 3.28338 16.0861 2.92588 16.3497 2.66222C16.6134 2.39857 16.9709 2.25031 17.3438 2.25H55.7812C56.1541 2.25031 56.5116 2.39857 56.7753 2.66222C57.0389 2.92588 57.1872 3.28338 57.1875 3.65625V27.0938Z" fill="#0D2549"/>
<path d="M16.875 30.375H5.625C5.37636 30.375 5.1379 30.4738 4.96209 30.6496C4.78627 30.8254 4.6875 31.0639 4.6875 31.3125V36.9375C4.6875 37.1861 4.78627 37.4246 4.96209 37.6004C5.1379 37.7762 5.37636 37.875 5.625 37.875H16.875C17.1236 37.875 17.3621 37.7762 17.5379 37.6004C17.7137 37.4246 17.8125 37.1861 17.8125 36.9375V31.3125C17.8125 31.0639 17.7137 30.8254 17.5379 30.6496C17.3621 30.4738 17.1236 30.375 16.875 30.375ZM15.9375 36H6.5625V32.25H15.9375V36Z" fill="#0D2549"/>
<path d="M41.25 30.375H30.9375C30.6889 30.375 30.4504 30.4738 30.2746 30.6496C30.0988 30.8254 30 31.0639 30 31.3125C30 31.5611 30.0988 31.7996 30.2746 31.9754C30.4504 32.1512 30.6889 32.25 30.9375 32.25H41.25C41.4986 32.25 41.7371 32.1512 41.9129 31.9754C42.0887 31.7996 42.1875 31.5611 42.1875 31.3125C42.1875 31.0639 42.0887 30.8254 41.9129 30.6496C41.7371 30.4738 41.4986 30.375 41.25 30.375Z" fill="#0D2549"/>
<path d="M41.25 33.1875H30.9375C30.6889 33.1875 30.4504 33.2863 30.2746 33.4621C30.0988 33.6379 30 33.8764 30 34.125C30 34.3736 30.0988 34.6121 30.2746 34.7879C30.4504 34.9637 30.6889 35.0625 30.9375 35.0625H41.25C41.4986 35.0625 41.7371 34.9637 41.9129 34.7879C42.0887 34.6121 42.1875 34.3736 42.1875 34.125C42.1875 33.8764 42.0887 33.6379 41.9129 33.4621C41.7371 33.2863 41.4986 33.1875 41.25 33.1875Z" fill="#0D2549"/>
<path d="M41.25 36H35.625C35.3764 36 35.1379 36.0988 34.9621 36.2746C34.7863 36.4504 34.6875 36.6889 34.6875 36.9375C34.6875 37.1861 34.7863 37.4246 34.9621 37.6004C35.1379 37.7762 35.3764 37.875 35.625 37.875H41.25C41.4986 37.875 41.7371 37.7762 41.9129 37.6004C42.0887 37.4246 42.1875 37.1861 42.1875 36.9375C42.1875 36.6889 42.0887 36.4504 41.9129 36.2746C41.7371 36.0988 41.4986 36 41.25 36Z" fill="#0D2549"/>
</svg>
