<svg width="200" height="200" viewBox="0 0 200 200" fill="none" xmlns="http://www.w3.org/2000/svg">
<rect x="47.2656" y="10.5469" width="99.6094" height="183.203" fill="white"/>
<path d="M46.875 25H146.875V14.0625C146.875 13.0365 146.673 12.0204 146.281 11.0724C145.888 10.1244 145.313 9.26306 144.587 8.53754C143.862 7.81202 143.001 7.23657 142.053 6.84406C141.105 6.45156 140.089 6.24969 139.062 6.25H54.6875C53.6615 6.24969 52.6454 6.45156 51.6974 6.84406C50.7494 7.23657 49.8881 7.81202 49.1625 8.53754C48.437 9.26306 47.8616 10.1244 47.4691 11.0724C47.0766 12.0204 46.8747 13.0365 46.875 14.0625V25Z" fill="#00DF71"/>
<path d="M146.875 42.6758C143.174 39.832 138.75 38.0812 134.105 37.6215C129.46 37.1617 124.779 38.0115 120.592 40.0745C116.405 42.1375 112.879 45.3314 110.414 49.2947C107.948 53.258 106.641 57.8324 106.641 62.5C106.641 76.3086 131.641 100 131.641 100C137.121 94.693 142.212 88.9986 146.875 82.961C152.094 76.0782 156.641 68.3907 156.641 62.5C156.644 58.6677 155.765 54.8861 154.071 51.4483C152.378 48.0105 149.915 45.0088 146.875 42.6758ZM131.641 68.75C130.404 68.75 129.196 68.3835 128.168 67.6967C127.141 67.01 126.339 66.0339 125.866 64.8918C125.393 63.7498 125.27 62.4931 125.511 61.2807C125.752 60.0683 126.347 58.9547 127.221 58.0806C128.095 57.2066 129.209 56.6113 130.421 56.3701C131.634 56.129 132.89 56.2528 134.032 56.7258C135.174 57.1988 136.151 57.9999 136.837 59.0277C137.524 60.0555 137.891 61.2639 137.891 62.5C137.891 64.1576 137.232 65.7474 136.06 66.9195C134.888 68.0916 133.298 68.75 131.641 68.75Z" fill="#06EDFC"/>
<path d="M146.875 121.875H147.266V109.375H91.0156V50H47.2656V62.5H78.5156V109.375H47.2656V121.875H106.641V175H46.875V185.938C46.8747 186.964 47.0766 187.98 47.4691 188.928C47.8616 189.876 48.437 190.737 49.1625 191.462C49.8881 192.188 50.7494 192.763 51.6974 193.156C52.6454 193.548 53.6615 193.75 54.6875 193.75H139.062C140.089 193.75 141.105 193.548 142.053 193.156C143.001 192.763 143.862 192.188 144.587 191.462C145.313 190.737 145.888 189.876 146.281 188.928C146.673 187.98 146.875 186.964 146.875 185.938V175H119.141V121.875H146.875Z" fill="#00DF71"/>
<path d="M103.125 181.25H90.625C89.7962 181.25 89.0013 181.579 88.4153 182.165C87.8292 182.751 87.5 183.546 87.5 184.375C87.5 185.204 87.8292 185.999 88.4153 186.585C89.0013 187.171 89.7962 187.5 90.625 187.5H103.125C103.954 187.5 104.749 187.171 105.335 186.585C105.921 185.999 106.25 185.204 106.25 184.375C106.25 183.546 105.921 182.751 105.335 182.165C104.749 181.579 103.954 181.25 103.125 181.25Z" fill="#0D2549"/>
<path d="M87.5 18.75H106.25C107.079 18.75 107.874 18.4208 108.46 17.8347C109.046 17.2487 109.375 16.4538 109.375 15.625C109.375 14.7962 109.046 14.0013 108.46 13.4153C107.874 12.8292 107.079 12.5 106.25 12.5H87.5C86.6712 12.5 85.8763 12.8292 85.2903 13.4153C84.7042 14.0013 84.375 14.7962 84.375 15.625C84.375 16.4538 84.7042 17.2487 85.2903 17.8347C85.8763 18.4208 86.6712 18.75 87.5 18.75Z" fill="#0D2549"/>
<path d="M131.25 53.125C129.396 53.125 127.583 53.6748 126.042 54.705C124.5 55.7351 123.298 57.1993 122.589 58.9123C121.879 60.6254 121.693 62.5104 122.055 64.329C122.417 66.1475 123.31 67.818 124.621 69.1291C125.932 70.4402 127.602 71.3331 129.421 71.6949C131.24 72.0566 133.125 71.8709 134.838 71.1614C136.551 70.4518 138.015 69.2502 139.045 67.7085C140.075 66.1668 140.625 64.3542 140.625 62.5C140.622 60.0145 139.633 57.6316 137.876 55.8741C136.118 54.1165 133.736 53.1279 131.25 53.125ZM131.25 65.625C130.632 65.625 130.028 65.4417 129.514 65.0983C129 64.755 128.599 64.2669 128.363 63.6959C128.126 63.1249 128.064 62.4965 128.185 61.8903C128.306 61.2841 128.603 60.7273 129.04 60.2903C129.477 59.8532 130.034 59.5556 130.64 59.435C131.247 59.3145 131.875 59.3764 132.446 59.6129C133.017 59.8494 133.505 60.2499 133.848 60.7638C134.192 61.2777 134.375 61.8819 134.375 62.5C134.374 63.3285 134.045 64.1228 133.459 64.7087C132.873 65.2945 132.079 65.6241 131.25 65.625Z" fill="#0D2549"/>
<path d="M150 41.5586V14.0625C149.997 11.1627 148.843 8.38254 146.793 6.33206C144.742 4.28158 141.962 3.12821 139.062 3.125H54.6875C51.7877 3.12821 49.0075 4.28158 46.9571 6.33206C44.9066 8.38254 43.7532 11.1627 43.75 14.0625V185.938C43.7532 188.837 44.9066 191.617 46.9571 193.668C49.0075 195.718 51.7877 196.872 54.6875 196.875H139.062C141.962 196.872 144.742 195.718 146.793 193.668C148.843 191.617 149.997 188.837 150 185.938V83.4727C156.227 74.9844 159.375 67.9453 159.375 62.5C159.376 58.5459 158.541 54.6362 156.926 51.0273C155.31 47.4183 152.95 44.1916 150 41.5586ZM50 14.0625C50.001 12.8196 50.4952 11.6279 51.3741 10.7491C52.2529 9.87023 53.4446 9.37603 54.6875 9.375H139.062C140.305 9.37603 141.497 9.87023 142.376 10.7491C143.255 11.6279 143.749 12.8196 143.75 14.0625V21.875H50V14.0625ZM50 65.625H75V106.25H50V65.625ZM50 125H103.125V171.875H50V125ZM143.75 185.938C143.749 187.18 143.255 188.372 142.376 189.251C141.497 190.13 140.305 190.624 139.062 190.625H54.6875C53.4446 190.624 52.2529 190.13 51.3741 189.251C50.4952 188.372 50.001 187.18 50 185.938V178.125H143.75V185.938ZM143.75 171.875H121.875V125H143.75V171.875ZM143.75 118.75H118.75C117.921 118.75 117.126 119.079 116.54 119.665C115.954 120.251 115.625 121.046 115.625 121.875V171.875H109.375V121.875C109.375 121.046 109.046 120.251 108.46 119.665C107.874 119.079 107.079 118.75 106.25 118.75H50V112.5H78.125C78.9538 112.5 79.7487 112.171 80.3347 111.585C80.9208 110.999 81.25 110.204 81.25 109.375V62.5C81.25 61.6712 80.9208 60.8763 80.3347 60.2903C79.7487 59.7042 78.9538 59.375 78.125 59.375H50V53.125H87.5V109.375C87.5 110.204 87.8292 110.999 88.4153 111.585C89.0013 112.171 89.7962 112.5 90.625 112.5H143.75V118.75ZM143.75 106.25H93.75V50C93.75 49.1712 93.4208 48.3763 92.8347 47.7903C92.2487 47.2042 91.4538 46.875 90.625 46.875H50V28.125H143.75V37.3164C139.463 35.1841 134.703 34.1822 129.921 34.4055C125.138 34.6289 120.492 36.0702 116.423 38.5927C112.354 41.1152 108.996 44.6354 106.669 48.8193C104.342 53.0033 103.122 57.7124 103.125 62.5C103.125 68.9648 107.566 77.6797 116.328 88.4062C120.318 93.267 124.583 97.8957 129.102 102.27C129.682 102.819 130.451 103.125 131.25 103.125C132.049 103.125 132.818 102.819 133.398 102.27C133.625 102.051 138.367 97.5469 143.75 91.2891V106.25ZM141.371 84.4023C137.496 89.1445 133.582 93.25 131.25 95.6094C128.918 93.25 125.004 89.1445 121.129 84.4023C113.551 75.1133 109.375 67.3359 109.375 62.5C109.375 56.6984 111.68 51.1344 115.782 47.032C119.884 42.9297 125.448 40.625 131.25 40.625C137.052 40.625 142.616 42.9297 146.718 47.032C150.82 51.1344 153.125 56.6984 153.125 62.5C153.125 67.3359 148.949 75.1133 141.371 84.4023Z" fill="#0D2549"/>
</svg>
