<svg width="120" height="96" viewBox="0 0 120 96" fill="none" xmlns="http://www.w3.org/2000/svg">
<g clip-path="url(#clip0_14_177)">
<path d="M6.3868 73.4578V78.8144H16.7635V84.9269H6.3868V95.1265H0V67.3453H16.9645V73.4578H6.3868Z" fill="#00DF71"/>
<path d="M40.0431 75.2837V95.1193H34.0581V93.2577C32.7377 94.7627 30.7858 95.6756 28.1091 95.6756C22.8777 95.6756 18.5648 91.1108 18.5648 85.198C18.5648 79.2851 22.8777 74.7203 28.1091 74.7203C30.7858 74.7203 32.7377 75.6332 34.0581 77.1382V75.2766H40.0431V75.2837ZM34.051 85.2051C34.051 82.2308 32.056 80.3621 29.3003 80.3621C26.5447 80.3621 24.5497 82.2237 24.5497 85.2051C24.5497 88.1865 26.5447 90.0481 29.3003 90.0481C32.056 90.0409 34.051 88.1794 34.051 85.2051Z" fill="#00DF71"/>
<path d="M62.7916 75.2838L55.4073 95.1193H48.6186L41.2343 75.2838H47.8651L52.0201 87.8584L56.1751 75.2838H62.7916Z" fill="#00DF71"/>
<path d="M62.1959 85.2051C62.1959 79.2922 66.9035 74.7274 72.7736 74.7274C78.6437 74.7274 83.3513 79.2922 83.3513 85.2051C83.3513 91.118 78.6437 95.6828 72.7736 95.6828C66.9035 95.6828 62.1959 91.118 62.1959 85.2051ZM77.3663 85.2051C77.3663 82.3877 75.3714 80.5262 72.7736 80.5262C70.1758 80.5262 68.1808 82.3877 68.1808 85.2051C68.1808 88.0224 70.1758 89.884 72.7736 89.884C75.3714 89.884 77.3663 88.0224 77.3663 85.2051Z" fill="#00DF71"/>
<path d="M104.629 75.2837V95.1193H98.6437V93.2577C97.5673 94.727 95.5723 95.6756 92.9386 95.6756C88.9056 95.6756 85.4754 92.8155 85.4754 87.459V75.2766H91.4604V86.5888C91.4604 89.0495 93.0176 90.1979 94.9336 90.1979C97.1295 90.1979 98.6437 88.9283 98.6437 86.1109V75.2766H104.629V75.2837Z" fill="#00DF71"/>
<path d="M120 74.8843V81.6317C117.524 81.2323 114.015 82.2237 114.015 86.1537V95.1193H108.03V75.2838H114.015V78.8144C114.812 76.1539 117.481 74.8843 120 74.8843Z" fill="#00DF71"/>
<path d="M41.4065 54.0717C45.4826 57.21 50.3839 59.3427 55.7374 60.0916C56.3473 57.8092 56.9286 55.755 57.2444 54.6494L48.9128 46.2972C45.3032 50.2558 43.1862 52.6523 41.4065 54.0717Z" fill="#00DF71"/>
<path d="M60.2153 2.1568e-05C43.4446 -0.121231 29.7452 13.3022 29.6233 29.978C29.573 36.7825 31.7905 43.0733 35.5723 48.1517L44.234 35.199L54.0581 27.2463L49.042 27.2106L40.6315 36.8253C40.0502 37.6455 39.512 37.9165 38.3567 37.9094C36.9788 37.9023 35.8809 36.7896 35.8881 35.1348C35.8952 34.3075 36.211 33.7583 36.7492 33.2019L46.0208 22.767C46.6021 22.2107 47.1403 21.9468 47.9799 21.9539L61.3491 22.0467C62.1959 22.0538 63.0355 22.3248 63.8752 22.8954L72.1636 31.2548L79.1819 24.6643C79.7632 24.1151 80.3014 23.8441 80.8325 23.8441C82.5189 23.8583 83.8895 25.2563 83.8752 26.6257C83.868 27.4674 83.5953 28.0166 83.3226 28.5658C80.775 30.7626 73.2042 40.3844 69.896 37.0392L64.9157 32.0251L56.7636 41.0905C65.9849 50.3628 67.657 54.3356 63.9397 60.1343C78.7657 58.2228 90.2691 45.6839 90.3768 30.4131C90.4988 13.7373 76.9932 0.121275 60.2153 2.1568e-05ZM69.9893 23.4803C66.6595 23.4589 63.6168 20.3848 63.6383 16.79C63.6599 13.1952 66.7456 10.4563 70.0825 10.4848C73.6778 10.5134 76.7205 13.2879 76.699 16.8898C76.6775 20.4918 73.5845 23.5088 69.9893 23.4803Z" fill="#00DF71"/>
</g>
<defs>
<clipPath id="clip0_14_177">
<rect width="120" height="95.6757" fill="white"/>
</clipPath>
</defs>
</svg>
