<svg width="20" height="19" viewBox="0 0 20 19" fill="none" xmlns="http://www.w3.org/2000/svg">
<path d="M19.0304 3.46969L16.0304 0.469692C15.9607 0.400041 15.878 0.344791 15.787 0.307096C15.696 0.269401 15.5985 0.25 15.5 0.25C15.4015 0.25 15.304 0.269401 15.213 0.307096C15.122 0.344791 15.0393 0.400041 14.9696 0.469692L5.96964 9.46969C5.829 9.61035 5.75 9.80111 5.75 10V13C5.75 13.1989 5.82902 13.3897 5.96967 13.5303C6.11032 13.671 6.30109 13.75 6.5 13.75H9.5C9.69892 13.75 9.8897 13.671 10.0304 13.5303L19.0304 4.53033C19.171 4.38968 19.25 4.19892 19.25 4.00001C19.25 3.8011 19.171 3.61034 19.0304 3.46969ZM16.25 5.18935L14.3107 3.25001L15.5 2.06067L17.4394 4.00001L16.25 5.18935Z" fill="#00DF71"/>
<path d="M17.9011 7.78088L11.0912 14.5907C10.8827 14.8003 10.6348 14.9664 10.3617 15.0796C10.0886 15.1927 9.79578 15.2505 9.50018 15.2498H6.50018C5.90365 15.2491 5.33174 15.0118 4.90992 14.59C4.48811 14.1682 4.25085 13.5963 4.25018 12.9998V9.99976C4.24937 9.70417 4.3072 9.41137 4.42032 9.13829C4.53343 8.86521 4.69959 8.61728 4.90918 8.40884L11.7209 1.59714C11.6883 1.42991 11.5988 1.27909 11.4678 1.17023C11.3367 1.06136 11.172 1.00114 11.0016 0.999756H2.00018C1.60248 1.00015 1.22118 1.15831 0.939957 1.43953C0.658737 1.72075 0.500576 2.10205 0.500183 2.49976V17.4998C0.500576 17.8975 0.658738 18.2788 0.939957 18.56C1.22118 18.8412 1.60248 18.9994 2.00018 18.9998H17.0002C17.3979 18.9994 17.7792 18.8412 18.0604 18.56C18.3416 18.2788 18.4998 17.8975 18.5002 17.4998V8.50049C18.4988 8.32979 18.4384 8.16484 18.3292 8.03366C18.22 7.90247 18.0687 7.81316 17.9011 7.78088Z" fill="#00DF71"/>
</svg>
