<svg width="19" height="18" viewBox="0 0 19 18" fill="none" xmlns="http://www.w3.org/2000/svg">
<path d="M16.667 0H1.66699C1.26925 0.000268453 0.887875 0.15839 0.606628 0.439636C0.325382 0.720883 0.167261 1.10226 0.166992 1.5V16.5C0.167261 16.8977 0.325382 17.2791 0.606628 17.5604C0.887875 17.8416 1.26925 17.9997 1.66699 18H11.8564C12.0535 18.0004 12.2486 17.9617 12.4307 17.8863C12.6127 17.8109 12.778 17.7002 12.917 17.5605L17.7275 12.75C17.8672 12.611 17.9779 12.4457 18.0533 12.2637C18.1287 12.0816 18.1674 11.8865 18.167 11.6895V1.5C18.1667 1.10226 18.0086 0.720883 17.7274 0.439636C17.4461 0.15839 17.0647 0.000268453 16.667 0ZM6.16699 5.25H12.167C12.3659 5.25 12.5567 5.32902 12.6973 5.46967C12.838 5.61032 12.917 5.80109 12.917 6C12.917 6.19891 12.838 6.38968 12.6973 6.53033C12.5567 6.67098 12.3659 6.75 12.167 6.75H6.16699C5.96808 6.75 5.77732 6.67098 5.63666 6.53033C5.49601 6.38968 5.41699 6.19891 5.41699 6C5.41699 5.80109 5.49601 5.61032 5.63666 5.46967C5.77732 5.32902 5.96808 5.25 6.16699 5.25ZM9.16699 12.75H6.16699C5.96808 12.75 5.77732 12.671 5.63666 12.5303C5.49601 12.3897 5.41699 12.1989 5.41699 12C5.41699 11.8011 5.49601 11.6103 5.63666 11.4697C5.77732 11.329 5.96808 11.25 6.16699 11.25H9.16699C9.36591 11.25 9.55667 11.329 9.69732 11.4697C9.83798 11.6103 9.91699 11.8011 9.91699 12C9.91699 12.1989 9.83798 12.3897 9.69732 12.5303C9.55667 12.671 9.36591 12.75 9.16699 12.75ZM6.16699 9.75C5.96808 9.75 5.77732 9.67098 5.63666 9.53033C5.49601 9.38968 5.41699 9.19891 5.41699 9C5.41699 8.80109 5.49601 8.61032 5.63666 8.46967C5.77732 8.32902 5.96808 8.25 6.16699 8.25H12.167C12.3659 8.25 12.5567 8.32902 12.6973 8.46967C12.838 8.61032 12.917 8.80109 12.917 9C12.917 9.19891 12.838 9.38968 12.6973 9.53033C12.5567 9.67098 12.3659 9.75 12.167 9.75H6.16699ZM12.167 16.1895V11.9985H16.3579L12.167 16.1895Z" fill="#00DF71"/>
</svg>
