<svg width="60" height="60" viewBox="0 0 60 60" fill="none" xmlns="http://www.w3.org/2000/svg">
<path fill-rule="evenodd" clip-rule="evenodd" d="M15.1249 47.5H9.9999C8.61651 44.5356 6.93316 37.9717 10.6051 34.3172C10.9992 33.9251 11.5517 33.75 12.1077 33.75H18.564C19.4531 33.75 20.2754 33.2777 20.7234 32.5097L23.6514 27.4903C24.0994 26.7223 24.9217 26.25 25.8108 26.25H32.8646C35.7054 26.25 38.3024 27.855 39.5729 30.3959L42.0368 35.3238C42.3333 35.9168 42.8533 36.3678 43.4823 36.5775L48.4671 38.2391C51.622 39.2907 53.7499 42.2431 53.7499 45.5685C53.7499 46.6352 52.8852 47.5 51.8184 47.5H49.8749C49.2958 44.6472 46.7736 42.5 43.7499 42.5C40.7262 42.5 38.204 44.6472 37.6249 47.5H27.3749C26.7958 44.6472 24.2736 42.5 21.2499 42.5C18.2262 42.5 15.704 44.6472 15.1249 47.5Z" fill="#06EDFC"/>
<path fill-rule="evenodd" clip-rule="evenodd" d="M25.2517 27.3828C25.2517 27.0376 25.5315 26.7578 25.8767 26.7578H33.0467C33.3919 26.7578 33.6717 27.0376 33.6717 27.3828C33.6717 27.728 33.3919 28.0078 33.0467 28.0078H25.8767C25.5315 28.0078 25.2517 27.728 25.2517 27.3828ZM9.93921 34.6922C10.4729 34.1845 11.1781 33.9844 11.8358 33.9844H18.5936C18.9388 33.9844 19.2186 34.2642 19.2186 34.6094C19.2186 34.9546 18.9388 35.2344 18.5936 35.2344H11.8358C11.4156 35.2344 11.048 35.3626 10.8008 35.5978C9.15501 37.1637 8.71939 39.468 8.90738 41.8323C9.09474 44.1886 9.89551 46.4813 10.562 47.8517C10.7129 48.1621 10.5837 48.5361 10.2733 48.6871C9.96286 48.838 9.58884 48.7088 9.43787 48.3983C8.71981 46.9219 7.86373 44.477 7.66131 41.9313C7.45952 39.3935 7.90122 36.6313 9.93921 34.6922Z" fill="white"/>
<path d="M24.9999 48.75C24.9999 50.8211 23.321 52.5 21.2499 52.5C19.1789 52.5 17.4999 50.8211 17.4999 48.75C17.4999 46.6789 19.1789 45 21.2499 45C23.321 45 24.9999 46.6789 24.9999 48.75Z" fill="#06EDFC"/>
<path d="M47.4999 48.75C47.4999 50.8211 45.821 52.5 43.7499 52.5C41.6789 52.5 39.9999 50.8211 39.9999 48.75C39.9999 46.6789 41.6789 45 43.7499 45C45.821 45 47.4999 46.6789 47.4999 48.75Z" fill="#06EDFC"/>
<path fill-rule="evenodd" clip-rule="evenodd" d="M44.7079 46.1448C44.7079 46.4899 44.4281 46.7698 44.0829 46.7698C42.8234 46.7698 41.8023 47.7908 41.8023 49.0503C41.8023 49.3955 41.5225 49.6753 41.1773 49.6753C40.8321 49.6753 40.5523 49.3955 40.5523 49.0503C40.5523 47.1004 42.133 45.5198 44.0829 45.5198C44.4281 45.5198 44.7079 45.7996 44.7079 46.1448Z" fill="white"/>
<path fill-rule="evenodd" clip-rule="evenodd" d="M22.1765 46.1448C22.1765 46.4899 21.8966 46.7698 21.5515 46.7698C20.2919 46.7698 19.2709 47.7908 19.2709 49.0503C19.2709 49.3955 18.9911 49.6753 18.6459 49.6753C18.3007 49.6753 18.0209 49.3955 18.0209 49.0503C18.0209 47.1004 19.6016 45.5198 21.5515 45.5198C21.8966 45.5198 22.1765 45.7996 22.1765 46.1448Z" fill="white"/>
<path d="M32.4998 33.75V28.75C33.761 28.3724 37.0266 29.3437 39.9998 36.25H34.6427C33.4592 36.25 32.4998 35.1307 32.4998 33.75Z" fill="white"/>
<path fill-rule="evenodd" clip-rule="evenodd" d="M26.875 47.5C26.875 47.1548 27.1548 46.875 27.5 46.875H37.5C37.8452 46.875 38.125 47.1548 38.125 47.5C38.125 47.8452 37.8452 48.125 37.5 48.125H27.5C27.1548 48.125 26.875 47.8452 26.875 47.5Z" fill="#0D2549"/>
<path fill-rule="evenodd" clip-rule="evenodd" d="M9.375 47.5C9.375 47.1548 9.65482 46.875 10 46.875H15C15.3452 46.875 15.625 47.1548 15.625 47.5C15.625 47.8452 15.3452 48.125 15 48.125H10C9.65482 48.125 9.375 47.8452 9.375 47.5Z" fill="#0D2549"/>
<path fill-rule="evenodd" clip-rule="evenodd" d="M5.625 41.25C5.625 40.9048 5.90482 40.625 6.25 40.625H26.25C26.5952 40.625 26.875 40.9048 26.875 41.25C26.875 41.5952 26.5952 41.875 26.25 41.875H6.25C5.90482 41.875 5.625 41.5952 5.625 41.25Z" fill="#0D2549"/>
<path fill-rule="evenodd" clip-rule="evenodd" d="M10.625 37.5C10.625 37.1548 10.9048 36.875 11.25 36.875H25C25.3452 36.875 25.625 37.1548 25.625 37.5C25.625 37.8452 25.3452 38.125 25 38.125H11.25C10.9048 38.125 10.625 37.8452 10.625 37.5Z" fill="#0D2549"/>
<path fill-rule="evenodd" clip-rule="evenodd" d="M25.8109 26.875C25.1441 26.875 24.5274 27.2292 24.1913 27.8052L21.2634 32.8246C20.7034 33.7847 19.6755 34.375 18.5641 34.375H11.25C10.9048 34.375 10.625 34.0952 10.625 33.75C10.625 33.4048 10.9048 33.125 11.25 33.125H18.5641C19.2309 33.125 19.8476 32.7708 20.1837 32.1948L23.1116 27.1754C23.6716 26.2153 24.6995 25.625 25.8109 25.625H32.8647C35.9423 25.625 38.7557 27.3638 40.132 30.1164L42.5959 35.0443C42.8183 35.4891 43.2083 35.8273 43.68 35.9845L48.6649 37.6462C52.0749 38.7828 54.375 41.974 54.375 45.5685C54.375 46.9804 53.2304 48.125 51.8185 48.125H50C49.6548 48.125 49.375 47.8452 49.375 47.5C49.375 47.1548 49.6548 46.875 50 46.875H51.8185C52.5401 46.875 53.125 46.2901 53.125 45.5685C53.125 42.5121 51.1692 39.7985 48.2696 38.832L43.2848 37.1704C42.4985 36.9083 41.8485 36.3446 41.4779 35.6033L39.0139 30.6754C37.8494 28.3463 35.4688 26.875 32.8647 26.875H25.8109Z" fill="#0D2549"/>
<path fill-rule="evenodd" clip-rule="evenodd" d="M21.25 45.625C19.5241 45.625 18.125 47.0241 18.125 48.75C18.125 50.4759 19.5241 51.875 21.25 51.875C22.9759 51.875 24.375 50.4759 24.375 48.75C24.375 47.0241 22.9759 45.625 21.25 45.625ZM16.875 48.75C16.875 46.3338 18.8338 44.375 21.25 44.375C23.6662 44.375 25.625 46.3338 25.625 48.75C25.625 51.1662 23.6662 53.125 21.25 53.125C18.8338 53.125 16.875 51.1662 16.875 48.75Z" fill="#0D2549"/>
<path fill-rule="evenodd" clip-rule="evenodd" d="M43.75 45.625C42.0241 45.625 40.625 47.0241 40.625 48.75C40.625 50.4759 42.0241 51.875 43.75 51.875C45.4759 51.875 46.875 50.4759 46.875 48.75C46.875 47.0241 45.4759 45.625 43.75 45.625ZM39.375 48.75C39.375 46.3338 41.3338 44.375 43.75 44.375C46.1662 44.375 48.125 46.3338 48.125 48.75C48.125 51.1662 46.1662 53.125 43.75 53.125C41.3338 53.125 39.375 51.1662 39.375 48.75Z" fill="#0D2549"/>
<path fill-rule="evenodd" clip-rule="evenodd" d="M5.625 52.5C5.625 52.1548 5.90482 51.875 6.25 51.875H53.75C54.0952 51.875 54.375 52.1548 54.375 52.5C54.375 52.8452 54.0952 53.125 53.75 53.125H6.25C5.90482 53.125 5.625 52.8452 5.625 52.5Z" fill="#0D2549"/>
<path fill-rule="evenodd" clip-rule="evenodd" d="M32.5 28.125C32.8452 28.125 33.125 28.4048 33.125 28.75V33.75C33.125 34.7855 33.9645 35.625 35 35.625H39.8047C40.1499 35.625 40.4297 35.9048 40.4297 36.25C40.4297 36.5952 40.1499 36.875 39.8047 36.875H35C33.2741 36.875 31.875 35.4759 31.875 33.75V28.75C31.875 28.4048 32.1548 28.125 32.5 28.125Z" fill="#0D2549"/>
</svg>
