<svg width="60" height="60" viewBox="0 0 60 60" fill="none" xmlns="http://www.w3.org/2000/svg">
<path d="M11.25 10C11.25 9.30964 11.8096 8.75 12.5 8.75H47.5C48.1904 8.75 48.75 9.30964 48.75 10V41.25H11.25V10Z" fill="#06EDFC"/>
<path d="M10 45C10 44.3096 10.5596 43.75 11.25 43.75H13.75C14.4404 43.75 15 44.3096 15 45V50C15 50.6904 14.4404 51.25 13.75 51.25H11.25C10.5596 51.25 10 50.6904 10 50V45Z" fill="#06EDFC"/>
<path d="M45 45C45 44.3096 45.5596 43.75 46.25 43.75H48.75C49.4404 43.75 50 44.3096 50 45V50C50 50.6904 49.4404 51.25 48.75 51.25H46.25C45.5596 51.25 45 50.6904 45 50V45Z" fill="#06EDFC"/>
<path d="M8.75 42.5C8.75 41.8096 9.30964 41.25 10 41.25H50C50.6904 41.25 51.25 41.8096 51.25 42.5C51.25 43.1904 50.6904 43.75 50 43.75H10C9.30965 43.75 8.75 43.1904 8.75 42.5Z" fill="#06EDFC"/>
<path d="M24.1176 41.25H35.8824L42.5 53.75H17.5L24.1176 41.25Z" fill="white"/>
<path d="M41.25 33.75H48.75V41.25H41.25V33.75Z" fill="white"/>
<path d="M11.25 30H23.75V41.25H11.25V30Z" fill="white"/>
<path d="M23.75 33.75H31.25V41.25H23.75V33.75Z" fill="white"/>
<path d="M11.25 23.75H17.5V30H11.25V23.75Z" fill="white"/>
<path d="M17.5 23.75H23.75V30H17.5V23.75Z" fill="white"/>
<path d="M11.25 17.5H17.5V23.75H11.25V17.5Z" fill="white"/>
<path fill-rule="evenodd" clip-rule="evenodd" d="M24.08 42.2076C24.1883 42.003 24.4008 41.875 24.6324 41.875H35.1471C35.4922 41.875 35.7721 42.1548 35.7721 42.5C35.7721 42.8452 35.4922 43.125 35.1471 43.125H25.0087L20.5524 51.5424C20.3909 51.8475 20.0126 51.9639 19.7076 51.8024C19.4025 51.6409 19.2861 51.2626 19.4476 50.9576L24.08 42.2076Z" fill="#06EDFC"/>
<path fill-rule="evenodd" clip-rule="evenodd" d="M17.6758 24.6094C17.6758 24.2642 17.9556 23.9844 18.3008 23.9844H22.0508C22.396 23.9844 22.6758 24.2642 22.6758 24.6094C22.6758 24.9546 22.396 25.2344 22.0508 25.2344H18.9258V28.3594C18.9258 28.7046 18.646 28.9844 18.3008 28.9844C17.9556 28.9844 17.6758 28.7046 17.6758 28.3594V24.6094Z" fill="#06EDFC"/>
<path fill-rule="evenodd" clip-rule="evenodd" d="M24.1211 34.7266C24.1211 34.3814 24.4009 34.1016 24.7461 34.1016H29.7461C30.0913 34.1016 30.3711 34.3814 30.3711 34.7266C30.3711 35.0717 30.0913 35.3516 29.7461 35.3516H25.3711V39.7266C25.3711 40.0717 25.0913 40.3516 24.7461 40.3516C24.4009 40.3516 24.1211 40.0717 24.1211 39.7266V34.7266Z" fill="#06EDFC"/>
<path fill-rule="evenodd" clip-rule="evenodd" d="M41.5039 34.7266C41.5039 34.3814 41.7837 34.1016 42.1289 34.1016H47.1289C47.4741 34.1016 47.7539 34.3814 47.7539 34.7266C47.7539 35.0717 47.4741 35.3516 47.1289 35.3516H42.7539V39.7266C42.7539 40.0717 42.4741 40.3516 42.1289 40.3516C41.7837 40.3516 41.5039 40.0717 41.5039 39.7266V34.7266Z" fill="#06EDFC"/>
<path fill-rule="evenodd" clip-rule="evenodd" d="M11.4844 24.6094C11.4844 24.2642 11.7642 23.9844 12.1094 23.9844H15.8594C16.2046 23.9844 16.4844 24.2642 16.4844 24.6094C16.4844 24.9546 16.2046 25.2344 15.8594 25.2344H12.7344V28.3594C12.7344 28.7046 12.4546 28.9844 12.1094 28.9844C11.7642 28.9844 11.4844 28.7046 11.4844 28.3594V24.6094Z" fill="#06EDFC"/>
<path fill-rule="evenodd" clip-rule="evenodd" d="M11.4844 30.9375C11.4844 30.5923 11.7642 30.3125 12.1094 30.3125H22.1094C22.4546 30.3125 22.7344 30.5923 22.7344 30.9375C22.7344 31.2827 22.4546 31.5625 22.1094 31.5625H12.7344V39.6875C12.7344 40.0327 12.4546 40.3125 12.1094 40.3125C11.7642 40.3125 11.4844 40.0327 11.4844 39.6875V30.9375Z" fill="#06EDFC"/>
<path fill-rule="evenodd" clip-rule="evenodd" d="M11.4844 18.3586C11.4844 18.0135 11.7642 17.7336 12.1094 17.7336H15.8594C16.2046 17.7336 16.4844 18.0135 16.4844 18.3586C16.4844 18.7038 16.2046 18.9836 15.8594 18.9836H12.7344V22.1086C12.7344 22.4538 12.4546 22.7336 12.1094 22.7336C11.7642 22.7336 11.4844 22.4538 11.4844 22.1086V18.3586Z" fill="#06EDFC"/>
<path fill-rule="evenodd" clip-rule="evenodd" d="M10.625 10C10.625 8.96447 11.4645 8.125 12.5 8.125H47.5C48.5355 8.125 49.375 8.96447 49.375 10V41.25C49.375 41.5952 49.0952 41.875 48.75 41.875H11.25C10.9048 41.875 10.625 41.5952 10.625 41.25V10ZM12.5 9.375C12.1548 9.375 11.875 9.65482 11.875 10V40.625H48.125V10C48.125 9.65482 47.8452 9.375 47.5 9.375H12.5Z" fill="#1F0D02"/>
<path fill-rule="evenodd" clip-rule="evenodd" d="M8.125 42.5C8.125 41.4645 8.96447 40.625 10 40.625H50C51.0355 40.625 51.875 41.4645 51.875 42.5C51.875 43.5355 51.0355 44.375 50 44.375H37.5C37.1548 44.375 36.875 44.0952 36.875 43.75C36.875 43.4048 37.1548 43.125 37.5 43.125H50C50.3452 43.125 50.625 42.8452 50.625 42.5C50.625 42.1548 50.3452 41.875 50 41.875H10C9.65482 41.875 9.375 42.1548 9.375 42.5C9.375 42.8452 9.65482 43.125 10 43.125H22.5C22.8452 43.125 23.125 43.4048 23.125 43.75C23.125 44.0952 22.8452 44.375 22.5 44.375H10C8.96447 44.375 8.125 43.5355 8.125 42.5Z" fill="#1F0D02"/>
<path fill-rule="evenodd" clip-rule="evenodd" d="M9.375 45C9.375 43.9645 10.2145 43.125 11.25 43.125H13.75C14.7855 43.125 15.625 43.9645 15.625 45V50C15.625 51.0355 14.7855 51.875 13.75 51.875H11.25C10.2145 51.875 9.375 51.0355 9.375 50V45ZM11.25 44.375C10.9048 44.375 10.625 44.6548 10.625 45V50C10.625 50.3452 10.9048 50.625 11.25 50.625H13.75C14.0952 50.625 14.375 50.3452 14.375 50V45C14.375 44.6548 14.0952 44.375 13.75 44.375H11.25Z" fill="#1F0D02"/>
<path fill-rule="evenodd" clip-rule="evenodd" d="M44.375 45C44.375 43.9645 45.2145 43.125 46.25 43.125H48.75C49.7855 43.125 50.625 43.9645 50.625 45V50C50.625 51.0355 49.7855 51.875 48.75 51.875H46.25C45.2145 51.875 44.375 51.0355 44.375 50V45ZM46.25 44.375C45.9048 44.375 45.625 44.6548 45.625 45V50C45.625 50.3452 45.9048 50.625 46.25 50.625H48.75C49.0952 50.625 49.375 50.3452 49.375 50V45C49.375 44.6548 49.0952 44.375 48.75 44.375H46.25Z" fill="#1F0D02"/>
<path fill-rule="evenodd" clip-rule="evenodd" d="M10.625 30C10.625 29.6548 10.9048 29.375 11.25 29.375H23.75C24.0952 29.375 24.375 29.6548 24.375 30V41.25C24.375 41.5952 24.0952 41.875 23.75 41.875H11.25C10.9048 41.875 10.625 41.5952 10.625 41.25V30ZM11.875 30.625V40.625H23.125V30.625H11.875Z" fill="#1F0D02"/>
<path fill-rule="evenodd" clip-rule="evenodd" d="M10.625 23.75C10.625 23.4048 10.9048 23.125 11.25 23.125H17.5C17.8452 23.125 18.125 23.4048 18.125 23.75V30C18.125 30.3452 17.8452 30.625 17.5 30.625H11.25C10.9048 30.625 10.625 30.3452 10.625 30V23.75ZM11.875 24.375V29.375H16.875V24.375H11.875Z" fill="#1F0D02"/>
<path fill-rule="evenodd" clip-rule="evenodd" d="M40.625 33.75C40.625 33.4048 40.9048 33.125 41.25 33.125H48.75C49.0952 33.125 49.375 33.4048 49.375 33.75V41.25C49.375 41.5952 49.0952 41.875 48.75 41.875H41.25C40.9048 41.875 40.625 41.5952 40.625 41.25V33.75ZM41.875 34.375V40.625H48.125V34.375H41.875Z" fill="#1F0D02"/>
<path fill-rule="evenodd" clip-rule="evenodd" d="M16.875 23.75C16.875 23.4048 17.1548 23.125 17.5 23.125H23.75C24.0952 23.125 24.375 23.4048 24.375 23.75V30C24.375 30.3452 24.0952 30.625 23.75 30.625H17.5C17.1548 30.625 16.875 30.3452 16.875 30V23.75ZM18.125 24.375V29.375H23.125V24.375H18.125Z" fill="#1F0D02"/>
<path fill-rule="evenodd" clip-rule="evenodd" d="M10.625 17.5C10.625 17.1548 10.9048 16.875 11.25 16.875H17.5C17.8452 16.875 18.125 17.1548 18.125 17.5V23.75C18.125 24.0952 17.8452 24.375 17.5 24.375H11.25C10.9048 24.375 10.625 24.0952 10.625 23.75V17.5ZM11.875 18.125V23.125H16.875V18.125H11.875Z" fill="#1F0D02"/>
<path fill-rule="evenodd" clip-rule="evenodd" d="M23.125 33.75C23.125 33.4048 23.4048 33.125 23.75 33.125H31.25C31.5952 33.125 31.875 33.4048 31.875 33.75V41.25C31.875 41.5952 31.5952 41.875 31.25 41.875H23.75C23.4048 41.875 23.125 41.5952 23.125 41.25V33.75ZM24.375 34.375V40.625H30.625V34.375H24.375Z" fill="#1F0D02"/>
<path fill-rule="evenodd" clip-rule="evenodd" d="M23.5653 40.9576C23.6736 40.753 23.8861 40.625 24.1176 40.625H35.8824C36.1139 40.625 36.3264 40.753 36.4347 40.9576L43.0524 53.4576C43.1549 53.6513 43.1485 53.8846 43.0354 54.0724C42.9224 54.2602 42.7192 54.375 42.5 54.375H17.5C17.2808 54.375 17.0776 54.2602 16.9646 54.0724C16.8515 53.8846 16.8451 53.6513 16.9476 53.4576L23.5653 40.9576ZM24.4939 41.875L18.5381 53.125H41.4619L35.5061 41.875H24.4939Z" fill="#1F0D02"/>
<path fill-rule="evenodd" clip-rule="evenodd" d="M26.875 45C26.875 44.6548 27.1548 44.375 27.5 44.375H32.5C32.8452 44.375 33.125 44.6548 33.125 45C33.125 45.3452 32.8452 45.625 32.5 45.625H27.5C27.1548 45.625 26.875 45.3452 26.875 45Z" fill="#1F0D02"/>
<path fill-rule="evenodd" clip-rule="evenodd" d="M24.375 48.75C24.375 48.4048 24.6548 48.125 25 48.125H35C35.3452 48.125 35.625 48.4048 35.625 48.75C35.625 49.0952 35.3452 49.375 35 49.375H25C24.6548 49.375 24.375 49.0952 24.375 48.75Z" fill="#1F0D02"/>
</svg>
