<svg width="60" height="60" viewBox="0 0 60 60" fill="none" xmlns="http://www.w3.org/2000/svg">
<path d="M12.9091 27.1838C13.0682 25.9354 14.1305 25 15.389 25H25.861C27.1195 25 28.1818 25.9355 28.341 27.1838L30.891 47.1838C31.0815 48.6779 29.9172 50 28.411 50H12.839C11.3328 50 10.1686 48.6779 10.3591 47.1838L12.9091 27.1838Z" fill="white"/>
<path d="M28.4661 27.1767C28.6285 25.9315 29.6894 25 30.9451 25H44.0549C45.3106 25 46.3715 25.9315 46.5339 27.1767L49.6317 50.9267C49.8269 52.4231 48.6618 53.75 47.1527 53.75H27.8473C26.3381 53.75 25.1731 52.4231 25.3683 50.9267L28.4661 27.1767Z" fill="#06EDFC"/>
<path d="M33.086 10.8594C33.8672 10.7031 35.3646 9.59633 36.0157 9.06248C36.1407 7.62498 36.9271 6.84893 37.3047 6.6406C41.8672 6.17185 44.5703 7.53904 45.3516 8.28123C46.9141 9.56248 47.487 12.2526 47.5781 13.4375C47.5781 17.3437 45.8594 19.2187 43.75 19.6875C41.6406 20.1562 38.5547 20.3906 36.7969 18.5547C35.3906 17.0859 35.9505 14.7135 36.4062 13.7109C35.1302 14.5312 32.3204 15.7734 31.2891 14.1797C30.0001 12.1875 32.1094 11.0547 33.086 10.8594Z" fill="white"/>
<path d="M23.0829 12.9433C22.486 12.8239 21.342 11.9783 20.8446 11.5705C17.1765 10.2017 13.9094 11.0001 12.7344 11.5705C12.3281 12.1392 12.0827 14.0358 12.0108 14.913C12.0108 17.8974 13.3239 19.3299 14.9355 19.688C16.5471 20.0462 18.9048 20.2252 20.2478 18.8226C21.3221 17.7004 20.8944 15.8879 20.5462 15.1219C21.5211 15.7486 23.6678 16.6977 24.4557 15.48C25.4406 13.958 23.829 13.0925 23.0829 12.9433Z" fill="white"/>
<path fill-rule="evenodd" clip-rule="evenodd" d="M29.8427 27.9391C29.9646 27.0053 30.7602 26.3066 31.702 26.3066H43.2529C43.5981 26.3066 43.8779 26.5865 43.8779 26.9316C43.8779 27.2768 43.5981 27.5566 43.2529 27.5566H31.702C31.3881 27.5566 31.1228 27.7895 31.0822 28.1008L28.2131 50.0973C28.1685 50.4395 27.8548 50.6808 27.5126 50.6362C27.1703 50.5915 26.929 50.2779 26.9736 49.9356L29.8427 27.9391Z" fill="white"/>
<path fill-rule="evenodd" clip-rule="evenodd" d="M14.1872 27.6574C14.3052 26.7198 15.1025 26.0166 16.0475 26.0166H26.3434C26.6886 26.0166 26.9684 26.2964 26.9684 26.6416C26.9684 26.9868 26.6886 27.2666 26.3434 27.2666H16.0475C15.7325 27.2666 15.4667 27.501 15.4274 27.8135L12.9639 47.3826C12.9207 47.725 12.6082 47.9677 12.2657 47.9246C11.9232 47.8815 11.6805 47.5689 11.7236 47.2264L14.1872 27.6574Z" fill="#06EDFC"/>
<path fill-rule="evenodd" clip-rule="evenodd" d="M36.9694 9.44259C37.1883 9.7095 37.1494 10.1033 36.8825 10.3222C36.5908 10.5613 36.1144 10.9251 35.6202 11.2493C35.373 11.4115 35.1135 11.5688 34.8653 11.6966C34.6258 11.8199 34.3598 11.9352 34.1078 11.9856C33.7872 12.0497 33.2663 12.281 32.9629 12.6269C32.8216 12.788 32.7464 12.9515 32.7325 13.121C32.7189 13.2883 32.7592 13.5324 32.9761 13.8676C33.1636 14.1574 33.0807 14.5443 32.7909 14.7318C32.5011 14.9193 32.1142 14.8364 31.9267 14.5466C31.5934 14.0315 31.4461 13.517 31.4867 13.0195C31.527 12.5242 31.7478 12.1166 32.0232 11.8026C32.5534 11.1981 33.3497 10.8625 33.8627 10.7599C33.9442 10.7436 34.0881 10.6908 34.2931 10.5852C34.4895 10.4841 34.7094 10.3518 34.9346 10.2041C35.3851 9.90859 35.8257 9.57219 36.0899 9.35559C36.3568 9.13672 36.7506 9.17567 36.9694 9.44259ZM37.4116 13.2982C37.7259 13.441 37.8648 13.8116 37.722 14.1258C37.5587 14.485 37.3793 15.1007 37.375 15.7533C37.3708 16.4009 37.5373 17.0241 37.9905 17.4975C38.6316 18.167 39.5607 18.6122 40.5711 18.8388C41.5804 19.0652 42.6159 19.0606 43.4191 18.8821C43.7561 18.8072 44.09 19.0196 44.1648 19.3566C44.2397 19.6936 44.0273 20.0274 43.6903 20.1023C42.693 20.3239 41.4709 20.3217 40.2976 20.0585C39.1255 19.7957 37.9471 19.2596 37.0877 18.3619C36.3404 17.5815 36.1194 16.6014 36.125 15.7451C36.1306 14.8939 36.3583 14.1053 36.584 13.6086C36.7269 13.2943 37.0974 13.1554 37.4116 13.2982Z" fill="#FFEFDD"/>
<path fill-rule="evenodd" clip-rule="evenodd" d="M12.8678 14.0652C12.5226 14.0652 12.2428 14.345 12.2428 14.6902C12.2428 16.07 12.5463 17.159 13.0943 17.9618C13.6479 18.7725 14.4211 19.2464 15.2639 19.4337C15.9956 19.5963 16.9239 19.7252 17.8416 19.643C18.7584 19.561 19.7265 19.2616 20.4493 18.5066C20.688 18.2573 20.6794 17.8616 20.4301 17.6229C20.1808 17.3842 19.7851 17.3928 19.5464 17.6421C19.1068 18.1013 18.4731 18.3315 17.7302 18.398C16.9881 18.4644 16.1984 18.3608 15.5351 18.2134C14.9829 18.0907 14.4903 17.7895 14.1267 17.257C13.7576 16.7164 13.4928 15.8937 13.4928 14.6902C13.4928 14.345 13.213 14.0652 12.8678 14.0652Z" fill="#FFEFDD"/>
<path fill-rule="evenodd" clip-rule="evenodd" d="M37.2279 6.77398C37.4778 7.01203 37.4875 7.40764 37.2494 7.6576C36.7607 8.17081 36.6406 8.84311 36.6406 9.06247C36.6407 9.2497 36.5567 9.42707 36.4119 9.54579C36.0727 9.82398 35.5177 10.2479 34.9424 10.6252C34.6547 10.8139 34.3542 10.996 34.0678 11.1434C33.7902 11.2864 33.4891 11.4161 33.2085 11.4722C32.8165 11.5507 32.1826 11.8305 31.8078 12.2579C31.6307 12.4597 31.5301 12.6722 31.5116 12.8987C31.4933 13.123 31.5497 13.432 31.8138 13.8402C32.105 14.2902 32.694 14.4404 33.624 14.2397C34.5178 14.0467 35.4688 13.5705 36.0682 13.1852C36.3014 13.0353 36.6054 13.0569 36.8151 13.2382C37.0247 13.4195 37.0899 13.7172 36.9752 13.9696C36.7767 14.4063 36.547 15.1673 36.5281 15.9727C36.5093 16.7758 36.6994 17.5492 37.2483 18.1225C37.9856 18.8925 39.0293 19.2583 40.1973 19.3628C41.3644 19.4673 42.5939 19.3042 43.6144 19.0774C44.5238 18.8753 45.3405 18.3757 45.9389 17.4992C46.5427 16.6146 46.9531 15.3025 46.9531 13.4375C46.9531 13.4079 46.9552 13.3784 46.9594 13.3491C46.9594 13.3491 46.9601 13.3439 46.9608 13.3323C46.9615 13.321 46.9621 13.3058 46.9622 13.2863C46.9624 13.247 46.9609 13.1962 46.9569 13.1337C46.9487 13.0086 46.9313 12.8505 46.9038 12.6669C46.8489 12.2998 46.7572 11.8516 46.6331 11.3941C46.5087 10.9353 46.3554 10.4806 46.1811 10.0953C46.0011 9.69773 45.8224 9.4278 45.6706 9.28808C45.4165 9.05438 45.4001 8.65899 45.6338 8.40497C45.8675 8.15094 46.2629 8.13446 46.5169 8.36817C46.8533 8.67767 47.1157 9.12877 47.3199 9.57997C47.5297 10.0435 47.7035 10.5654 47.8395 11.0669C47.9759 11.5697 48.0778 12.0654 48.1401 12.482C48.1946 12.8467 48.2293 13.2156 48.203 13.4745C48.1976 15.4979 47.7493 17.0642 46.9712 18.204C46.1829 19.3587 45.0856 20.031 43.8856 20.2976C42.7967 20.5396 41.4285 20.728 40.0859 20.6079C38.744 20.4878 37.3659 20.0528 36.3454 18.9869C35.488 18.0914 35.255 16.9442 35.2785 15.9434C35.2864 15.6051 35.3236 15.2751 35.3792 14.9646C34.9101 15.1705 34.3985 15.3513 33.8877 15.4615C32.836 15.6885 31.5044 15.6629 30.7644 14.5192C30.3839 13.9312 30.2206 13.3517 30.2658 12.7971C30.3108 12.2448 30.5569 11.7883 30.8681 11.4336C31.4697 10.7476 32.3789 10.3634 32.9634 10.2465C33.0734 10.2245 33.2525 10.1573 33.4957 10.0321C33.7302 9.91136 33.9912 9.75418 34.2569 9.57992C34.6846 9.29935 35.1044 8.98781 35.4145 8.7436C35.4854 8.22514 35.729 7.44152 36.3443 6.79553C36.5823 6.54557 36.9779 6.53592 37.2279 6.77398Z" fill="#1F0D02"/>
<path fill-rule="evenodd" clip-rule="evenodd" d="M20.3613 11.174C20.1424 11.4409 20.1813 11.8348 20.4483 12.0536C20.7107 12.2688 21.139 12.5959 21.5836 12.8875C21.806 13.0334 22.0403 13.1755 22.2652 13.2913C22.4814 13.4026 22.7258 13.5091 22.9603 13.556C23.2371 13.6114 23.6889 13.8129 23.9485 14.1089C24.068 14.245 24.1277 14.3786 24.1387 14.5132C24.1494 14.6456 24.119 14.8498 23.931 15.1404C23.7614 15.4024 23.3991 15.5318 22.7029 15.3815C22.043 15.2391 21.333 14.8846 20.8841 14.596C20.651 14.4462 20.347 14.4677 20.1373 14.649C19.9277 14.8303 19.8625 15.1281 19.9772 15.3804C20.1219 15.6988 20.2917 16.2607 20.3056 16.8532C20.3194 17.4435 20.1792 17.9903 19.7963 18.3902C19.2664 18.9436 18.5084 19.2149 17.6366 19.293C16.7657 19.3709 15.8427 19.2493 15.0711 19.0778C14.4106 18.931 13.8197 18.5697 13.385 17.9328C12.9471 17.2914 12.6391 16.3273 12.6358 14.9354C12.6585 14.6304 12.7082 14.138 12.7849 13.6371C12.8656 13.1102 12.9685 12.6273 13.082 12.3372C13.2078 12.0157 13.0492 11.6532 12.7277 11.5274C12.4063 11.4016 12.0437 11.5602 11.9179 11.8817C11.7502 12.3103 11.6314 12.9115 11.5493 13.4479C11.4651 13.9979 11.4114 14.5357 11.3874 14.8678C11.3863 14.8828 11.3858 14.8978 11.3858 14.9129C11.3858 16.4932 11.7334 17.7306 12.3526 18.6376C12.9773 19.5527 13.8488 20.0867 14.7999 20.298C15.6399 20.4847 16.7015 20.6316 17.748 20.538C18.7937 20.4444 19.8861 20.1039 20.6992 19.2547C21.3906 18.5325 21.5737 17.6119 21.5552 16.8239C21.5512 16.6513 21.5375 16.4816 21.5165 16.317C21.813 16.4346 22.1259 16.5358 22.4392 16.6034C23.2571 16.7799 24.3621 16.7751 24.9804 15.8194C25.2848 15.349 25.4222 14.8743 25.3845 14.4116C25.347 13.9512 25.1418 13.5737 24.8882 13.2846C24.4018 12.73 23.6747 12.4241 23.2054 12.3303C23.1415 12.3175 23.0191 12.2735 22.8374 12.18C22.6643 12.0909 22.4696 11.9737 22.2692 11.8423C21.8683 11.5794 21.4758 11.2797 21.2409 11.087C20.9739 10.8682 20.5801 10.9071 20.3613 11.174Z" fill="#1F0D02"/>
<path fill-rule="evenodd" clip-rule="evenodd" d="M12.2892 27.1048C12.4882 25.5443 13.816 24.375 15.3891 24.375H25.8611C27.4159 24.375 28.8465 25.5497 29.0477 27.128C29.0913 27.4704 28.8492 27.7834 28.5068 27.827C28.1643 27.8707 27.8514 27.6285 27.8077 27.2861C27.6906 26.3676 26.8233 25.625 25.8611 25.625H15.3891C14.4453 25.625 13.6485 26.3266 13.5292 27.2629L10.9792 47.2629C10.8363 48.3834 11.7094 49.375 12.8391 49.375H25.2148C25.56 49.375 25.8398 49.6548 25.8398 50C25.8398 50.3452 25.56 50.625 25.2148 50.625H12.8391C10.9563 50.625 9.50107 48.9724 9.7392 47.1048L12.2892 27.1048Z" fill="#1F0D02"/>
<path fill-rule="evenodd" clip-rule="evenodd" d="M27.8463 27.0958C28.0493 25.5394 29.3754 24.375 30.945 24.375H44.0548C45.6245 24.375 46.9506 25.5394 47.1536 27.0958L50.2514 50.8458C50.4954 52.7164 49.039 54.375 47.1527 54.375H27.8472C25.9608 54.375 24.5044 52.7164 24.7484 50.8458L27.8463 27.0958ZM30.945 25.625C30.0032 25.625 29.2076 26.3236 29.0858 27.2575L25.9879 51.0075C25.8415 52.1298 26.7153 53.125 27.8472 53.125H47.1527C48.2845 53.125 49.1583 52.1298 49.0119 51.0075L45.9141 27.2575C45.7923 26.3236 44.9966 25.625 44.0548 25.625H30.945Z" fill="#1F0D02"/>
<path fill-rule="evenodd" clip-rule="evenodd" d="M36.5875 17.172C36.6712 17.5069 36.4674 17.8462 36.1326 17.9298C34.0474 18.4504 32.4221 20.1365 31.9891 22.2544C31.951 22.4721 31.9167 22.8686 31.9106 23.3101C31.9045 23.7576 31.9282 24.2 31.9885 24.5093C32.0544 24.8481 31.8333 25.1763 31.4945 25.2423C31.1557 25.3083 30.8275 25.0871 30.7615 24.7483C30.6772 24.3155 30.6541 23.7744 30.6607 23.2929C30.6674 22.8102 30.7048 22.3358 30.7599 22.0275L30.7625 22.0132L30.7626 22.0132C31.2895 19.4175 33.2766 17.3545 35.8298 16.717C36.1646 16.6334 36.5039 16.8371 36.5875 17.172ZM42.4329 19.4988C42.7238 19.3128 43.1102 19.3978 43.2962 19.6886C43.7428 20.3872 44.0669 21.1723 44.2376 22.0132C44.241 22.0298 44.2436 22.0465 44.2457 22.0632C44.282 22.3672 44.3252 22.8468 44.3378 23.3513C44.3502 23.8445 44.335 24.4097 44.2353 24.8612C44.1609 25.1983 43.8273 25.4112 43.4902 25.3368C43.1532 25.2623 42.9403 24.9287 43.0147 24.5917C43.0806 24.2933 43.1 23.8522 43.0882 23.3826C43.0771 22.9382 43.0395 22.5112 43.0075 22.2372C42.8668 21.5597 42.6041 20.9267 42.2431 20.362C42.0571 20.0712 42.1421 19.6847 42.4329 19.4988Z" fill="#1F0D02"/>
<path fill-rule="evenodd" clip-rule="evenodd" d="M20.5592 18.0085C20.5592 17.6634 20.839 17.3835 21.1842 17.3835C23.7071 17.3835 25.8102 19.175 26.2933 21.5549C26.2951 21.5637 26.2967 21.5725 26.2981 21.5813C26.3602 21.9729 26.4119 22.6032 26.3733 23.2648C26.3357 23.9105 26.2077 24.6742 25.8459 25.2671C25.6662 25.5618 25.2815 25.6549 24.9869 25.4751C24.6922 25.2953 24.5991 24.9107 24.7789 24.616C24.9796 24.287 25.0917 23.7712 25.1254 23.1921C25.1578 22.6367 25.1142 22.1041 25.0656 21.7904C24.6933 19.9882 23.0963 18.6335 21.1842 18.6335C20.839 18.6335 20.5592 18.3537 20.5592 18.0085ZM17.6365 19.6207C17.9283 19.8051 18.0154 20.1911 17.831 20.4829C17.5809 20.8786 17.3992 21.3212 17.3019 21.7945C17.253 22.0835 17.2069 22.6008 17.2424 23.1532C17.279 23.7232 17.3978 24.2521 17.6211 24.6122C17.803 24.9055 17.7127 25.2908 17.4193 25.4727C17.126 25.6546 16.7407 25.5643 16.5588 25.271C16.1764 24.6545 16.0368 23.8843 15.995 23.2333C15.9524 22.5707 16.0067 21.9501 16.0717 21.573L16.0751 21.5549C16.2027 20.9264 16.4432 20.339 16.7743 19.8151C16.9587 19.5233 17.3448 19.4362 17.6365 19.6207Z" fill="#1F0D02"/>
</svg>
