<svg width="60" height="60" viewBox="0 0 60 60" fill="none" xmlns="http://www.w3.org/2000/svg">
<g clip-path="url(#clip0_230_3139)">
<path d="M20 22.5C20 21.8096 20.5596 21.25 21.25 21.25H38.75C39.4404 21.25 40 21.8096 40 22.5V37.5C40 38.1903 39.4404 38.75 38.75 38.75H21.25C20.5596 38.75 20 38.1903 20 37.5V22.5Z" fill="white"/>
<path fill-rule="evenodd" clip-rule="evenodd" d="M21.25 23.125C21.25 22.7798 21.5298 22.5 21.875 22.5H38.125C38.4702 22.5 38.75 22.7798 38.75 23.125C38.75 23.4702 38.4702 23.75 38.125 23.75H22.5V36.875C22.5 37.2202 22.2202 37.5 21.875 37.5C21.5298 37.5 21.25 37.2202 21.25 36.875V23.125Z" fill="#06EDFC"/>
<path d="M26.25 21.25H33.75V26.25L31.875 25.5357L30 26.25L28.125 25.5357L26.25 26.25V21.25Z" fill="#06EDFC"/>
<path fill-rule="evenodd" clip-rule="evenodd" d="M27.5 23.125C27.5 22.7798 27.7798 22.5 28.125 22.5H31.875C32.2202 22.5 32.5 22.7798 32.5 23.125C32.5 23.4702 32.2202 23.75 31.875 23.75H28.125C27.7798 23.75 27.5 23.4702 27.5 23.125Z" fill="white"/>
<path d="M6.98712 37.7171L7.51369 51.5624C8.23235 52.3394 10.3902 53.6291 13.2723 52.5717L12.3396 27.7603C12.2731 26.1701 10.9301 24.9349 9.33988 25.0013C7.74967 25.0678 6.51445 26.4108 6.58093 28.001L6.98712 37.7171Z" fill="#06EDFC"/>
<path d="M8.63951 25.2723C7.57571 25.8572 7.18746 27.1937 7.77233 28.2575L12.1649 36.247C12.3559 36.5943 12.6269 36.8696 12.9425 37.0626C13.1039 37.1911 13.2863 37.2988 13.4872 37.3802L20.5526 40.243C21.6778 40.6988 22.9594 40.1563 23.4153 39.0312C23.8712 37.906 23.3286 36.6244 22.2035 36.1685L15.6869 33.5281L11.6247 26.1395C11.0398 25.0757 9.70331 24.6875 8.63951 25.2723Z" fill="#06EDFC"/>
<path d="M14.199 19.9148C13.4706 22.1478 11.0699 23.3674 8.83688 22.639C6.60389 21.9105 5.38422 19.5098 6.11267 17.2768C6.84112 15.0438 9.24184 13.8242 11.4748 14.5526C13.7078 15.2811 14.9275 17.6818 14.199 19.9148Z" fill="white"/>
<path fill-rule="evenodd" clip-rule="evenodd" d="M10.5183 25.1275C10.6846 25.4299 10.5742 25.81 10.2717 25.9763C9.51041 26.3948 9.23255 27.3513 9.65113 28.1127L14.0437 36.1021C14.21 36.4046 14.0996 36.7846 13.7971 36.9509C13.4946 37.1172 13.1146 37.0068 12.9483 36.7043L8.55576 28.7149C7.80459 27.3486 8.30323 25.6321 9.66951 24.8809C9.97198 24.7146 10.352 24.825 10.5183 25.1275Z" fill="white"/>
<path fill-rule="evenodd" clip-rule="evenodd" d="M7.608 27.0328C7.95287 27.0184 8.24414 27.2863 8.25856 27.6311L8.66485 37.3495L9.19141 51.1949C9.20453 51.5398 8.93554 51.8301 8.59062 51.8432C8.24569 51.8563 7.95543 51.5873 7.94231 51.2424L7.41584 37.3994L7.41575 37.397L7.00965 27.6833C6.99523 27.3385 7.26312 27.0472 7.608 27.0328Z" fill="white"/>
<path d="M43.8953 52.9256L44.0641 41.8955L46.0612 28.1412C46.2959 26.567 47.7624 25.4812 49.3366 25.716C50.9107 25.9508 51.9965 27.4172 51.7618 28.9914L49.8271 41.9837L49.6583 53.0138C47.9754 53.9873 45.1151 53.3606 43.8953 52.9256Z" fill="#06EDFC"/>
<path fill-rule="evenodd" clip-rule="evenodd" d="M49.8921 25.5372C50.9723 26.1311 51.3665 27.4882 50.7726 28.5684L45.9772 37.2906C45.7279 37.7441 45.3439 38.0767 44.9025 38.266C44.6576 38.5705 44.3287 38.8148 43.9318 38.9591L36.9435 41.4999C35.8703 41.8901 34.6761 41.403 34.182 40.3734C33.6139 39.1895 34.1914 37.7738 35.4256 37.3251L42.2229 34.8537L46.8609 26.4178C47.4548 25.3376 48.8119 24.9434 49.8921 25.5372Z" fill="#06EDFC"/>
<path d="M44.7287 20.5344C45.4571 22.7674 47.8579 23.9871 50.0909 23.2586C52.3238 22.5302 53.5435 20.1294 52.8151 17.8965C52.0866 15.6635 49.6859 14.4438 47.4529 15.1722C45.2199 15.9007 44.0002 18.3014 44.7287 20.5344Z" fill="white"/>
<path d="M47.4529 15.1722C49.6859 14.4438 52.0866 15.6635 52.8151 17.8965C53.1059 18.7881 53.0862 19.7064 52.8154 20.5344L45.9843 16.0021C46.4009 15.6403 46.8953 15.3541 47.4529 15.1722Z" fill="#06EDFC"/>
<path fill-rule="evenodd" clip-rule="evenodd" d="M46.7819 27.1217C47.5421 25.739 49.2793 25.2344 50.6619 25.9946C50.9644 26.1609 51.0748 26.5409 50.9085 26.8434C50.7422 27.1459 50.3622 27.2563 50.0597 27.09C49.284 26.6635 48.31 26.9447 47.8806 27.7179L43.4454 36.2644C43.3722 36.4054 43.2481 36.5133 43.0982 36.566L36.106 39.027C35.7804 39.1416 35.4235 38.9705 35.3089 38.6449C35.1943 38.3193 35.3654 37.9625 35.691 37.8479L42.4499 35.469L46.7819 27.1217Z" fill="white"/>
<path fill-rule="evenodd" clip-rule="evenodd" d="M19.3751 22.5C19.3751 21.4645 20.2145 20.625 21.2501 20.625H38.7501C39.7856 20.625 40.6251 21.4645 40.6251 22.5V35.4492C40.6251 35.7944 40.3452 36.0742 40.0001 36.0742C39.6549 36.0742 39.3751 35.7944 39.3751 35.4492V22.5C39.3751 22.1548 39.0952 21.875 38.7501 21.875H21.2501C20.9049 21.875 20.6251 22.1548 20.6251 22.5V35C20.6251 35.3452 20.3452 35.625 20.0001 35.625C19.6549 35.625 19.3751 35.3452 19.3751 35V22.5ZM23.1251 38.75C23.1251 38.4048 23.4049 38.125 23.7501 38.125H34.3751C34.7202 38.125 35.0001 38.4048 35.0001 38.75C35.0001 39.0952 34.7202 39.375 34.3751 39.375H23.7501C23.4049 39.375 23.1251 39.0952 23.1251 38.75Z" fill="#1F0D02"/>
<path fill-rule="evenodd" clip-rule="evenodd" d="M25.6251 21.25C25.6251 20.9048 25.9049 20.625 26.2501 20.625H33.7501C34.0952 20.625 34.3751 20.9048 34.3751 21.25V26.25C34.3751 26.4556 34.274 26.648 34.1047 26.7646C33.9355 26.8813 33.7197 26.9072 33.5276 26.8341L31.8751 26.2045L30.2226 26.8341C30.0792 26.8886 29.9209 26.8886 29.7776 26.8341L28.1251 26.2045L26.4726 26.8341C26.2805 26.9072 26.0647 26.8813 25.8954 26.7646C25.7261 26.648 25.6251 26.4556 25.6251 26.25V21.25ZM26.8751 21.875V25.3431L27.9026 24.9517C28.0459 24.8971 28.2042 24.8971 28.3476 24.9517L30.0001 25.5812L31.6526 24.9517C31.7959 24.8971 31.9542 24.8971 32.0976 24.9517L33.1251 25.3431V21.875H26.8751Z" fill="#1F0D02"/>
<path fill-rule="evenodd" clip-rule="evenodd" d="M47.6468 15.7664C49.5516 15.145 51.5995 16.1854 52.2209 18.0902C52.8423 19.9951 51.8019 22.043 49.8971 22.6644C47.9922 23.2858 45.9443 22.2453 45.3229 20.3405C44.7015 18.4357 45.742 16.3878 47.6468 15.7664ZM53.4093 17.7026C52.5738 15.1414 49.8203 13.7425 47.2591 14.578C44.698 15.4135 43.2991 18.167 44.1346 20.7282C44.9701 23.2893 47.7236 24.6882 50.2847 23.8527C52.8459 23.0172 54.2448 20.2637 53.4093 17.7026Z" fill="#1F0D02"/>
<path fill-rule="evenodd" clip-rule="evenodd" d="M41.6571 13.4974C41.8397 13.2045 42.2251 13.115 42.5181 13.2975L53.2993 20.0163C53.5923 20.1988 53.6818 20.5843 53.4992 20.8773C53.3166 21.1702 52.9312 21.2597 52.6382 21.0771L41.857 14.3584C41.564 14.1758 41.4745 13.7904 41.6571 13.4974Z" fill="#1F0D02"/>
<path fill-rule="evenodd" clip-rule="evenodd" d="M48.9656 25.1711C49.0868 24.8479 49.4471 24.6841 49.7703 24.8053C51.4162 25.4226 52.6637 27.1809 52.38 29.0834C52.38 29.0834 52.38 29.0833 52.38 29.0834L50.4514 42.0346L50.2832 53.0232C50.278 53.3684 49.9939 53.6439 49.6488 53.6386C49.3036 53.6333 49.0281 53.3493 49.0334 53.0041L49.2022 41.974C49.2026 41.9464 49.2049 41.9188 49.2089 41.8915L51.1437 28.8993C51.3295 27.6534 50.498 26.4132 49.3314 25.9758C49.0082 25.8546 48.8444 25.4943 48.9656 25.1711ZM44.5211 38.5204C44.8636 38.5633 45.1065 38.8757 45.0636 39.2182L44.9324 40.2659L44.6884 41.9453L44.5203 52.9351C44.515 53.2802 44.2309 53.5557 43.8858 53.5504C43.5406 53.5451 43.2651 53.2611 43.2704 52.9159L43.4392 41.8858C43.4396 41.859 43.4418 41.8322 43.4456 41.8056L43.6944 40.0924L43.8233 39.0629C43.8661 38.7204 44.1786 38.4775 44.5211 38.5204Z" fill="#1F0D02"/>
<path fill-rule="evenodd" clip-rule="evenodd" d="M47.4085 26.7188C47.8361 25.9411 48.8132 25.6573 49.5909 26.0849C50.3686 26.5124 50.6524 27.4895 50.2248 28.2672L45.0633 37.6554C44.8547 38.0349 44.5164 38.2962 44.1326 38.4156C44.1171 38.4204 44.1018 38.4258 44.0867 38.4318C44.0711 38.438 44.0554 38.444 44.0395 38.4498L37.0512 40.9906C36.28 41.271 35.4218 40.9209 35.0668 40.1811C34.6585 39.3303 35.0736 38.313 35.9604 37.9905L42.3024 35.6847C42.4448 35.6329 42.5635 35.5312 42.6365 35.3984L47.4085 26.7188ZM50.1931 24.9895C48.8104 24.2293 47.0733 24.7339 46.3131 26.1166L41.6544 34.5903L35.5333 36.8158C33.9519 37.3907 33.2118 39.2048 33.9398 40.7219C34.5729 42.0411 36.1031 42.6654 37.4783 42.1654L44.4666 39.6246C44.4869 39.6172 44.507 39.6096 44.527 39.6018C45.1977 39.387 45.7923 38.924 46.1587 38.2576L51.3202 28.8695C52.0804 27.4868 51.5758 25.7497 50.1931 24.9895Z" fill="#1F0D02"/>
<path fill-rule="evenodd" clip-rule="evenodd" d="M11.4874 15.0435C9.58254 14.4221 7.53462 15.4625 6.91323 17.3673C6.29183 19.2722 7.33226 21.3201 9.23709 21.9415C11.1419 22.5629 13.1898 21.5224 13.8112 19.6176C14.4326 17.7128 13.3922 15.6649 11.4874 15.0435ZM5.72486 16.9797C6.56036 14.4185 9.31389 13.0196 11.875 13.8551C14.4362 14.6906 15.8351 17.4441 14.9996 20.0053C14.1641 22.5664 11.4106 23.9653 8.84942 23.1298C6.28827 22.2943 4.88936 19.5408 5.72486 16.9797Z" fill="#1F0D02"/>
<path fill-rule="evenodd" clip-rule="evenodd" d="M6.16282 27.9237C6.08192 25.9886 7.58503 24.3544 9.52011 24.2735L9.78101 24.2626C11.572 24.1877 13.0846 25.5789 13.1595 27.3699L11.9106 27.4221C11.8645 26.3208 10.9345 25.4654 9.83322 25.5115L9.57233 25.5224C8.327 25.5744 7.35967 26.6262 7.41173 27.8715L7.81792 37.5875L7.81801 37.5899L8.34458 51.4353C8.3577 51.7802 8.08871 52.0704 7.74378 52.0836C7.39886 52.0967 7.1086 51.8277 7.09548 51.4828L6.56901 37.6398L6.16282 27.9237ZM12.8381 36.108C13.183 36.0945 13.4736 36.3631 13.4871 36.708L14.1032 52.4438C14.1167 52.7887 13.848 53.0793 13.5031 53.0928C13.1582 53.1063 12.8677 52.8376 12.8542 52.4927L12.2381 36.7569C12.2246 36.412 12.4932 36.1215 12.8381 36.108Z" fill="#1F0D02"/>
<path fill-rule="evenodd" clip-rule="evenodd" d="M11.2834 26.3372C10.8649 25.5759 9.90836 25.298 9.14704 25.7166C8.38571 26.1352 8.10786 27.0917 8.52643 27.853L12.919 35.8425C13.0562 36.092 13.2498 36.2883 13.4749 36.4259C13.4969 36.4394 13.518 36.4542 13.5382 36.4702C13.6532 36.5617 13.7835 36.6389 13.9283 36.6976L20.9938 39.5603C21.799 39.8865 22.7162 39.4983 23.0425 38.6931C23.3687 37.8878 22.9804 36.9706 22.1752 36.6443L15.6586 34.004C15.5254 33.95 15.4149 33.8518 15.3457 33.7259L11.2834 26.3372ZM8.54481 24.6213C9.91109 23.8701 11.6276 24.3687 12.3788 25.735L16.334 32.9289L22.6446 35.4858C24.0897 36.0713 24.7865 37.7174 24.201 39.1625C23.6155 40.6075 21.9694 41.3043 20.5244 40.7188L13.4589 37.8561C13.2143 37.757 12.9902 37.6269 12.79 37.472C12.3982 37.2249 12.0618 36.8778 11.8236 36.4447L7.43107 28.4552C6.67989 27.089 7.17853 25.3724 8.54481 24.6213Z" fill="#1F0D02"/>
</g>
<defs>
<clipPath id="clip0_230_3139">
<rect width="60" height="60" fill="white"/>
</clipPath>
</defs>
</svg>
