<svg width="60" height="60" viewBox="0 0 60 60" fill="none" xmlns="http://www.w3.org/2000/svg">
<path fill-rule="evenodd" clip-rule="evenodd" d="M13.75 20H37.5C38.8807 20 40 21.1193 40 22.5V31.875C40 33.2557 41.1193 34.375 42.5 34.375H48.4502C49.047 34.375 49.6241 34.5885 50.0772 34.9769L52.877 37.3767C53.4311 37.8517 53.75 38.545 53.75 39.2748V45C53.75 46.3807 52.6307 47.5 51.25 47.5H49.875C49.2959 44.6472 46.7737 42.5 43.75 42.5C40.7263 42.5 38.2041 44.6472 37.625 47.5H37.5H27.375C26.7959 44.6472 24.2737 42.5 21.25 42.5C18.2263 42.5 15.7041 44.6472 15.125 47.5H15H13.75C12.3693 47.5 11.25 46.3807 11.25 45V22.5C11.25 21.1193 12.3693 20 13.75 20Z" fill="white"/>
<path fill-rule="evenodd" clip-rule="evenodd" d="M11.25 21.875C11.25 20.8395 12.0895 20 13.125 20H38.125C38.4702 20 38.75 20.2798 38.75 20.625C38.75 20.9702 38.4702 21.25 38.125 21.25H13.125C12.7798 21.25 12.5 21.5298 12.5 21.875V45.625C12.5 45.9702 12.2202 46.25 11.875 46.25C11.5298 46.25 11.25 45.9702 11.25 45.625V21.875ZM42.5 35C42.5 34.6548 42.7798 34.375 43.125 34.375H49.0752C49.4204 34.375 49.7002 34.6548 49.7002 35C49.7002 35.3452 49.4204 35.625 49.0752 35.625H43.125C42.7798 35.625 42.5 35.3452 42.5 35Z" fill="#06EDFC"/>
<path d="M25 18.75C25 23.5825 21.0825 27.5 16.25 27.5C11.4175 27.5 7.5 23.5825 7.5 18.75C7.5 13.9175 11.4175 10 16.25 10C21.0825 10 25 13.9175 25 18.75Z" fill="#06EDFC"/>
<path fill-rule="evenodd" clip-rule="evenodd" d="M15.129 11.6276C15.244 11.953 15.0734 12.3101 14.748 12.4251C11.885 13.437 9.83539 16.1674 9.83539 19.3749C9.83539 19.7201 9.55557 19.9999 9.21039 19.9999C8.86521 19.9999 8.58539 19.7201 8.58539 19.3749C8.58539 15.6212 10.9847 12.4295 14.3314 11.2466C14.6568 11.1316 15.0139 11.3021 15.129 11.6276Z" fill="white"/>
<path d="M25 48.75C25 50.8211 23.3211 52.5 21.25 52.5C19.1789 52.5 17.5 50.8211 17.5 48.75C17.5 46.6789 19.1789 45 21.25 45C23.3211 45 25 46.6789 25 48.75Z" fill="#06EDFC"/>
<path d="M47.5 48.75C47.5 50.8211 45.8211 52.5 43.75 52.5C41.6789 52.5 40 50.8211 40 48.75C40 46.6789 41.6789 45 43.75 45C45.8211 45 47.5 46.6789 47.5 48.75Z" fill="#06EDFC"/>
<path fill-rule="evenodd" clip-rule="evenodd" d="M22.1689 46.1448C22.1689 46.4899 21.8891 46.7698 21.5439 46.7698C20.2844 46.7698 19.2633 47.7908 19.2633 49.0503C19.2633 49.3955 18.9835 49.6753 18.6383 49.6753C18.2931 49.6753 18.0133 49.3955 18.0133 49.0503C18.0133 47.1004 19.594 45.5198 21.5439 45.5198C21.8891 45.5198 22.1689 45.7996 22.1689 46.1448Z" fill="white"/>
<path fill-rule="evenodd" clip-rule="evenodd" d="M44.6298 46.1448C44.6298 46.4899 44.35 46.7698 44.0048 46.7698C42.7453 46.7698 41.7243 47.7908 41.7243 49.0503C41.7243 49.3955 41.4444 49.6753 41.0993 49.6753C40.7541 49.6753 40.4743 49.3955 40.4743 49.0503C40.4743 47.1004 42.0549 45.5198 44.0048 45.5198C44.35 45.5198 44.6298 45.7996 44.6298 46.1448Z" fill="white"/>
<path d="M43.1142 25H40V31.25C40 32.6307 41.1193 33.75 42.5 33.75H47.5L45.5181 26.8132C45.2114 25.7399 44.2304 25 43.1142 25Z" fill="#06EDFC"/>
<path fill-rule="evenodd" clip-rule="evenodd" d="M28.125 20C28.125 19.6548 28.4048 19.375 28.75 19.375H37.5C39.2259 19.375 40.625 20.7741 40.625 22.5V31.875C40.625 32.9105 41.4645 33.75 42.5 33.75H48.4502C49.1962 33.75 49.9175 34.0168 50.4839 34.5023L53.2837 36.9022C53.9764 37.4959 54.375 38.3626 54.375 39.2748V45C54.375 46.7259 52.9759 48.125 51.25 48.125H50C49.6548 48.125 49.375 47.8452 49.375 47.5C49.375 47.1548 49.6548 46.875 50 46.875H51.25C52.2855 46.875 53.125 46.0355 53.125 45V39.2748C53.125 38.7275 52.8858 38.2074 52.4702 37.8512L49.6704 35.4514C49.3306 35.1601 48.8978 35 48.4502 35H42.5C40.7741 35 39.375 33.6009 39.375 31.875V22.5C39.375 21.4645 38.5355 20.625 37.5 20.625H28.75C28.4048 20.625 28.125 20.3452 28.125 20ZM11.25 41.875C11.5952 41.875 11.875 42.1548 11.875 42.5V45C11.875 46.0355 12.7145 46.875 13.75 46.875H15C15.3452 46.875 15.625 47.1548 15.625 47.5C15.625 47.8452 15.3452 48.125 15 48.125H13.75C12.0241 48.125 10.625 46.7259 10.625 45V42.5C10.625 42.1548 10.9048 41.875 11.25 41.875ZM26.875 47.5C26.875 47.1548 27.1548 46.875 27.5 46.875H37.5C37.8452 46.875 38.125 47.1548 38.125 47.5C38.125 47.8452 37.8452 48.125 37.5 48.125H27.5C27.1548 48.125 26.875 47.8452 26.875 47.5Z" fill="#1F0D02"/>
<path fill-rule="evenodd" clip-rule="evenodd" d="M10.9886 34.3635C11.3338 34.3635 11.6136 34.6433 11.6136 34.9885L11.6136 38.7385C11.6136 39.0837 11.3338 39.3635 10.9886 39.3635C10.6435 39.3635 10.3636 39.0837 10.3636 38.7385L10.3636 34.9885C10.3636 34.6433 10.6435 34.3635 10.9886 34.3635Z" fill="#1F0D02"/>
<path fill-rule="evenodd" clip-rule="evenodd" d="M39.375 25C39.375 24.6548 39.6548 24.375 40 24.375H43.1142C44.5095 24.375 45.7357 25.2999 46.119 26.6415L48.101 33.5783C48.1958 33.9102 48.0036 34.2561 47.6717 34.351C47.3398 34.4458 46.9939 34.2536 46.899 33.9217L44.9171 26.9849C44.6871 26.18 43.9514 25.625 43.1142 25.625H40C39.6548 25.625 39.375 25.3452 39.375 25Z" fill="#1F0D02"/>
<path fill-rule="evenodd" clip-rule="evenodd" d="M21.25 45.625C19.5241 45.625 18.125 47.0241 18.125 48.75C18.125 50.4759 19.5241 51.875 21.25 51.875C22.9759 51.875 24.375 50.4759 24.375 48.75C24.375 47.0241 22.9759 45.625 21.25 45.625ZM16.875 48.75C16.875 46.3338 18.8338 44.375 21.25 44.375C23.6662 44.375 25.625 46.3338 25.625 48.75C25.625 51.1662 23.6662 53.125 21.25 53.125C18.8338 53.125 16.875 51.1662 16.875 48.75Z" fill="#1F0D02"/>
<path fill-rule="evenodd" clip-rule="evenodd" d="M43.75 45.625C42.0241 45.625 40.625 47.0241 40.625 48.75C40.625 50.4759 42.0241 51.875 43.75 51.875C45.4759 51.875 46.875 50.4759 46.875 48.75C46.875 47.0241 45.4759 45.625 43.75 45.625ZM39.375 48.75C39.375 46.3338 41.3338 44.375 43.75 44.375C46.1662 44.375 48.125 46.3338 48.125 48.75C48.125 51.1662 46.1662 53.125 43.75 53.125C41.3338 53.125 39.375 51.1662 39.375 48.75Z" fill="#1F0D02"/>
<path fill-rule="evenodd" clip-rule="evenodd" d="M16.25 14.375C16.5952 14.375 16.875 14.6548 16.875 15V18.4911L18.3081 17.0581C18.5521 16.814 18.9479 16.814 19.1919 17.0581C19.436 17.3021 19.436 17.6979 19.1919 17.9419L16.6919 20.4419C16.5132 20.6207 16.2444 20.6742 16.0108 20.5774C15.7773 20.4807 15.625 20.2528 15.625 20V15C15.625 14.6548 15.9048 14.375 16.25 14.375Z" fill="#1F0D02"/>
<path fill-rule="evenodd" clip-rule="evenodd" d="M16.25 10.625C11.7627 10.625 8.125 14.2627 8.125 18.75C8.125 23.2373 11.7627 26.875 16.25 26.875C20.7373 26.875 24.375 23.2373 24.375 18.75C24.375 14.2627 20.7373 10.625 16.25 10.625ZM6.875 18.75C6.875 13.5723 11.0723 9.375 16.25 9.375C21.4277 9.375 25.625 13.5723 25.625 18.75C25.625 23.9277 21.4277 28.125 16.25 28.125C11.0723 28.125 6.875 23.9277 6.875 18.75Z" fill="#1F0D02"/>
<path fill-rule="evenodd" clip-rule="evenodd" d="M5.625 52.5C5.625 52.1548 5.90482 51.875 6.25 51.875H53.75C54.0952 51.875 54.375 52.1548 54.375 52.5C54.375 52.8452 54.0952 53.125 53.75 53.125H6.25C5.90482 53.125 5.625 52.8452 5.625 52.5Z" fill="#1F0D02"/>
</svg>
