<svg width="88" height="86" viewBox="0 0 88 86" fill="none" xmlns="http://www.w3.org/2000/svg">
<path d="M17.6592 76.6015C23.4337 81.0475 30.3772 84.0687 37.9612 85.1297C38.8254 81.8963 39.6488 78.9862 40.0961 77.42L28.2931 65.5877C23.1795 71.1957 20.1805 74.5908 17.6592 76.6015Z" fill="#00DF71"/>
<path d="M44.305 2.58023e-06C20.5465 -0.171772 1.1391 18.8447 0.966272 42.4688C0.895108 52.1085 4.03648 61.0205 9.3941 68.2149L21.6648 49.8653L35.5824 38.5989L28.4762 38.5483L16.5613 52.1691C15.7378 53.3311 14.9754 53.7151 13.3386 53.705C11.3867 53.6949 9.83125 52.1186 9.84141 49.7743C9.85158 48.6022 10.2989 47.8242 11.0614 47.036L24.1962 32.2533C25.0196 31.4651 25.7821 31.0913 26.9715 31.1014L45.9113 31.2327C47.1109 31.2428 48.3003 31.6268 49.4898 32.4352L61.2318 44.2775L71.1744 34.9411C71.9979 34.163 72.7604 33.7791 73.5127 33.7791C75.9017 33.7993 77.8435 35.7797 77.8232 37.7198C77.813 38.9121 77.4267 39.6901 77.0403 40.4682C73.4313 43.5803 62.7059 57.2112 58.0193 52.4722L50.9639 45.3688L39.415 58.2115C52.4787 71.3473 54.8474 76.9754 49.5813 85.1903C70.5848 82.4823 86.8813 64.7188 87.0338 43.0852C87.2066 19.4611 68.0737 0.171778 44.305 2.58023e-06ZM58.1514 33.2637C53.4343 33.2334 49.1238 28.8784 49.1543 23.7858C49.1848 18.6932 53.5563 14.8131 58.2836 14.8535C63.3769 14.8939 67.6874 18.8245 67.6569 23.9273C67.6264 29.03 63.2447 33.3041 58.1514 33.2637Z" fill="#00DF71"/>
</svg>
