<svg width="20" height="20" viewBox="0 0 20 20" fill="none" xmlns="http://www.w3.org/2000/svg">
<path d="M10 13.375C12.2782 13.375 14.125 11.5282 14.125 9.25C14.125 6.97183 12.2782 5.125 10 5.125C7.72183 5.125 5.875 6.97183 5.875 9.25C5.875 11.5282 7.72183 13.375 10 13.375Z" fill="#00DF71"/>
<path d="M10 0.25C8.07164 0.25 6.18657 0.821828 4.58319 1.89317C2.97982 2.96451 1.73013 4.48726 0.992179 6.26884C0.254225 8.05042 0.061142 10.0108 0.437348 11.9021C0.813554 13.7934 1.74215 15.5307 3.10571 16.8943C4.46928 18.2579 6.20656 19.1865 8.09787 19.5627C9.98919 19.9389 11.9496 19.7458 13.7312 19.0078C15.5127 18.2699 17.0355 17.0202 18.1068 15.4168C19.1782 13.8134 19.75 11.9284 19.75 10C19.7471 7.41504 18.7189 4.93679 16.8911 3.10894C15.0632 1.28109 12.585 0.252926 10 0.25ZM16.1648 15.476C15.5628 14.6037 14.782 13.8695 13.8744 13.3221C12.8308 14.3188 11.4432 14.875 10 14.875C8.55686 14.875 7.16923 14.3188 6.12558 13.3221C5.218 13.8695 4.43724 14.6037 3.83516 15.476C2.77814 14.2874 2.08725 12.8186 1.84568 11.2464C1.60411 9.67426 1.82217 8.06579 2.4736 6.6147C3.12502 5.16361 4.18204 3.93177 5.51737 3.06752C6.85269 2.20327 8.40939 1.74346 9.99999 1.74346C11.5906 1.74346 13.1473 2.20327 14.4826 3.06752C15.8179 3.93177 16.875 5.16361 17.5264 6.6147C18.1778 8.06579 18.3959 9.67426 18.1543 11.2464C17.9127 12.8186 17.2218 14.2874 16.1648 15.476Z" fill="#00DF71"/>
</svg>
