<svg width="20" height="20" viewBox="0 0 20 20" fill="none" xmlns="http://www.w3.org/2000/svg">
<path fill-rule="evenodd" clip-rule="evenodd" d="M3.04169 2.875V17.125H12.7007L17.2917 12.534V2.875H3.04169ZM17.4015 12.4242L17.4011 12.4246L17.4015 12.4242ZM12.5909 17.2348C12.591 17.2347 12.5912 17.2345 12.5913 17.2344L12.5909 17.2348ZM1.34086 1.17417C1.69249 0.822545 2.16941 0.625 2.66669 0.625H17.6667C18.164 0.625 18.6409 0.822544 18.9925 1.17417C19.3441 1.52581 19.5417 2.00272 19.5417 2.5V12.6893C19.5417 12.9356 19.4932 13.1794 19.399 13.4069C19.3047 13.6344 19.1666 13.8411 18.9925 14.0152L14.1819 18.8258C14.0077 18.9999 13.801 19.138 13.5736 19.2323C13.3461 19.3265 13.1023 19.375 12.856 19.375H2.66669C2.16941 19.375 1.69249 19.1775 1.34086 18.8258C0.989231 18.4742 0.791687 17.9973 0.791687 17.5V2.5C0.791687 2.00272 0.989232 1.52581 1.34086 1.17417Z" fill="#BBBDC1"/>
</svg>
