<svg width="20" height="20" viewBox="0 0 20 20" fill="none" xmlns="http://www.w3.org/2000/svg">
<g clip-path="url(#clip0_3568_4135)">
<path d="M10 20C15.5228 20 20 15.5228 20 10C20 4.47715 15.5228 0 10 0C4.47715 0 0 4.47715 0 10C0 15.5228 4.47715 20 10 20Z" fill="#00C80F"/>
<path d="M15.6606 14.5522C16.5948 13.8883 17.1875 12.8995 17.1875 11.7953C17.1875 9.79607 15.2451 8.17529 12.8489 8.17529C10.4528 8.17529 8.51044 9.79607 8.51044 11.7953C8.51044 13.7942 10.4528 15.4148 12.8489 15.4148C13.3679 15.4148 13.8656 15.3389 14.3267 15.1995C14.4081 15.175 14.4961 15.1844 14.5697 15.227L15.5104 15.7719C15.7195 15.8926 15.84 15.8008 15.779 15.5673L15.5745 14.7883C15.5515 14.6994 15.5857 14.6053 15.6606 14.5522ZM11.4029 11.2237C11.0776 11.2237 10.8137 10.96 10.8137 10.6348C10.8137 10.3095 11.0775 10.0459 11.4029 10.0459C11.7279 10.0459 11.992 10.3095 11.992 10.6348C11.9915 10.9601 11.7281 11.2237 11.4029 11.2237ZM14.2778 11.2237C13.9525 11.2237 13.6889 10.96 13.6889 10.6348C13.6889 10.3095 13.9525 10.0459 14.2778 10.0459C14.6031 10.0459 14.867 10.3095 14.867 10.6348C14.8667 10.9601 14.6031 11.2237 14.2778 11.2237Z" fill="white"/>
<path d="M12.9011 7.82902C12.9933 7.82902 13.0845 7.83121 13.1755 7.83559C12.7844 5.76137 10.6278 4.1748 8.02562 4.1748C5.14641 4.1748 2.8125 6.11715 2.8125 8.5134C2.8125 9.83059 3.51781 11.0106 4.63125 11.8062C4.73609 11.8811 4.78422 12.0126 4.75094 12.1372L4.50578 13.0514C4.43187 13.3275 4.57328 13.4354 4.81984 13.2914L5.93625 12.6397C6.03672 12.5807 6.15719 12.5659 6.26875 12.5993C6.8175 12.7626 7.40922 12.852 8.02562 12.852C8.11969 12.852 8.21328 12.8497 8.30594 12.8456C8.19094 12.5061 8.12953 12.1478 8.12953 11.7781C8.12953 9.59699 10.2659 7.82902 12.9011 7.82902ZM9.7575 6.42621C10.14 6.42621 10.45 6.73637 10.45 7.11902C10.45 7.50168 10.1402 7.81168 9.7575 7.81168C9.37484 7.81168 9.06469 7.50152 9.06469 7.11902C9.06469 6.73652 9.37484 6.42621 9.7575 6.42621ZM6.27625 7.81184C5.89359 7.81184 5.58344 7.50168 5.58344 7.11902C5.58344 6.73637 5.89359 6.42637 6.27625 6.42637C6.65875 6.42637 6.96906 6.73652 6.96906 7.11902C6.96906 7.50152 6.65891 7.81184 6.27625 7.81184Z" fill="white"/>
</g>
<defs>
<clipPath id="clip0_3568_4135">
<rect width="20" height="20" fill="white"/>
</clipPath>
</defs>
</svg>
